<?xml version="1.0" encoding="utf-8"?>
<!-- Generator: Adobe Illustrator 22.1.0, SVG Export Plug-In . SVG Version: 6.00 Build 0)  -->
<svg version="1.1" id="Layer_1" xmlns="http://www.w3.org/2000/svg" xmlns:xlink="http://www.w3.org/1999/xlink" x="0px" y="0px"
	 viewBox="0 0 591.7 608.8" style="enable-background:new 0 0 591.7 608.8;" xml:space="preserve">
<style type="text/css">
	.st0{opacity:0.25;}
	.st1{fill:#FFFFFF;}
	.st2{fill:#2C1122;}
	.st3{fill:url(#SVGID_1_);}
	.st4{fill:url(#SVGID_2_);}
	.st5{fill:#3E0F00;}
	.st6{fill:url(#SVGID_3_);}
	.st7{fill:url(#SVGID_4_);}
	.st8{fill:#4F1A11;}
	.st9{fill:url(#SVGID_5_);}
	.st10{fill:#00A79D;}
	.st11{fill:url(#SVGID_6_);}
	.st12{fill:url(#SVGID_7_);}
	.st13{fill:url(#SVGID_8_);}
	.st14{fill:url(#SVGID_9_);}
	.st15{fill:url(#SVGID_10_);}
	.st16{fill:url(#SVGID_11_);}
	.st17{fill:url(#SVGID_12_);}
	.st18{fill:url(#SVGID_13_);}
	.st19{fill:url(#SVGID_14_);}
	.st20{fill:url(#SVGID_15_);}
	.st21{fill:url(#SVGID_16_);}
	.st22{fill:url(#SVGID_17_);}
	.st23{fill:url(#SVGID_18_);}
	.st24{opacity:0.58;}
	.st25{fill:url(#SVGID_19_);}
	.st26{fill:url(#SVGID_20_);}
</style>
<g>
	<g class="st0">
		<path class="st1" d="M300.2,190c-24.4,0-44.2,19.8-44.2,44.2c0,24.4,19.8,44.2,44.2,44.2c24.4,0,44.2-19.8,44.2-44.2
			C344.4,209.8,324.6,190,300.2,190z M332.9,254.4h-16.3l2.3-8.5l6.2-6.2l8.2,14.1C333.1,254,333,254.2,332.9,254.4z M309.6,271.5
			l-8.1-8.1l7.5-7.5h5.8l-4.1,15.3C310.3,271.3,310,271.4,309.6,271.5z M290.4,271.3l-4.2-15.5h5.8l7.5,7.5l-8.2,8.2
			C290.9,271.5,290.6,271.4,290.4,271.3z M267.4,254.3l8.4-14.6l6.2,6.2l2.3,8.5h-16.8C267.5,254.4,267.5,254.3,267.4,254.3z
			 M300.5,214l-8.5-2.3l8.5-14.7l8.5,14.7L300.5,214z M309.7,213l2.4,4.1l-8.8-2.4L309.7,213z M297.7,214.8l-8.8,2.4l2.4-4.1
			L297.7,214.8z M300.5,215.5l12.6,3.4l7.9,13.7l-3.4,12.6l-9.2,9.2h-15.8l-9.2-9.2l-3.4-12.6l7.9-13.7L300.5,215.5z M315,219.4
			l8.9,2.4l-2.4,8.9L315,219.4z M314,217.7l-2.9-5l16.4-4.4l-3.3,12.1L314,217.7z M310.4,211.4l-9.1-15.7c10.1,0.3,19.3,4.5,26,11.2
			L310.4,211.4z M290.6,211.4l-17.4-4.7c6.8-6.7,16.1-10.9,26.4-11.1L290.6,211.4z M289.8,212.7l-2.9,5l-10.2,2.7l-3.3-12.1
			L289.8,212.7z M285.9,219.4l-6.5,11.2l-2.4-8.9L285.9,219.4z M278.4,232.4l-2.9,5l-12-12l12.1-3.3L278.4,232.4z M279,234.3
			l2.4,8.8l-4.7-4.7L279,234.3z M284.1,247.9l6.5,6.5h-4.7L284.1,247.9z M294,255.8h13l-6.5,6.5L294,255.8z M310.4,254.4l6.5-6.5
			l-1.7,6.5H310.4z M319.6,243.2l2.4-8.8l2.4,4.1L319.6,243.2z M322.5,232.4l2.7-10.2l12.1,3.3l-12,12L322.5,232.4z M325.6,220.8
			l3.3-12.2c3.9,4.4,6.8,9.6,8.4,15.4L325.6,220.8z M271.9,208.1l3.4,12.7l-12.3,3.3C264.7,218,267.8,212.5,271.9,208.1z
			 M262.5,226.4l12.3,12.3l-8.2,14.2c-3.1-5.6-4.9-11.9-4.9-18.8C261.7,231.5,262,228.9,262.5,226.4z M268.4,255.8h16.3l4,15.1
			C280.4,268.3,273.3,262.9,268.4,255.8z M292.9,271.9l7.6-7.6l7.5,7.5c-2.5,0.5-5.1,0.8-7.8,0.8
			C297.7,272.6,295.3,272.4,292.9,271.9z M312.3,270.7l4-14.9H332C327.3,262.7,320.3,268,312.3,270.7z M334.1,252.4l-7.9-13.7
			l11.9-11.9c0.5,2.4,0.7,4.8,0.7,7.3C338.7,240.7,337,247,334.1,252.4z"/>
		<path class="st1" d="M300.2,184.5c-27.4,0-49.7,22.3-49.7,49.7s22.3,49.7,49.7,49.7c27.4,0,49.7-22.3,49.7-49.7
			S327.6,184.5,300.2,184.5z M300.2,282.4c-26.6,0-48.3-21.6-48.3-48.3s21.6-48.3,48.3-48.3c26.6,0,48.3,21.6,48.3,48.3
			S326.8,282.4,300.2,282.4z"/>
		<path class="st1" d="M139,157.8c0-12.4-10.1-22.5-22.5-22.5s-22.5,10.1-22.5,22.5s10.1,22.5,22.5,22.5S139,170.2,139,157.8z
			 M95.5,157.8c0-11.6,9.4-21,21-21s21,9.4,21,21c0,11.6-9.4,21-21,21S95.5,169.4,95.5,157.8z"/>
		<path class="st1" d="M193.1,90.1c12.4,0,22.5-10.1,22.5-22.5s-10.1-22.5-22.5-22.5c-12.4,0-22.5,10.1-22.5,22.5
			S180.7,90.1,193.1,90.1z M193.1,46.6c11.6,0,21,9.4,21,21s-9.4,21-21,21c-11.6,0-21-9.4-21-21S181.5,46.6,193.1,46.6z"/>
		<path class="st1" d="M515.8,157.8c0-17.5-14.2-31.7-31.7-31.7c-4.4,0-8.5,0.9-12.3,2.5C461.5,112,449,97.1,434.6,84.1
			c2.9-4.8,4.6-10.4,4.6-16.4c0-17.5-14.2-31.7-31.7-31.7c-10.8,0-20.3,5.4-26.1,13.7c-24.9-11.1-52.5-17.2-81.5-17.2
			c-28.8,0-56.2,6.1-81,17c-5.7-8.1-15.2-13.4-25.9-13.4c-17.5,0-31.7,14.2-31.7,31.7c0,5.8,1.6,11.3,4.4,16
			c-14.5,13-27.2,28-37.5,44.7c-3.6-1.5-7.6-2.3-11.8-2.3c-17.5,0-31.7,14.2-31.7,31.7c0,13,7.8,24.2,19,29.1
			c-3.7,15.2-5.6,31-5.6,47.3c0,61.9,28,117.3,72,154.3c-2.6,4.6-4.2,10-4.2,15.7c0,17.5,14.2,31.7,31.7,31.7
			c11.2,0,21.1-5.9,26.7-14.7c23.3,9.4,48.8,14.7,75.5,14.7c26.5,0,51.8-5.1,75.1-14.5c5.7,8.7,15.5,14.5,26.6,14.5
			c17.5,0,31.7-14.2,31.7-31.7c0-5.6-1.5-10.8-4-15.4c44.2-37,72.4-92.6,72.4-154.6c0-16.2-1.9-31.9-5.6-47
			C507.6,182.4,515.8,171,515.8,157.8z M466.6,131l-40.3-23.3L420,96.8c4.3-1.9,8.2-4.7,11.2-8.1C444.9,101.1,456.8,115.3,466.6,131
			z M446.9,179l-4.1,3.5c-11.4-31.4-32.8-58-60.4-75.8l2.6-3.6c1.1,0.6,2.4,1,3.7,1c3.9,0,7-3,7.4-6.7c3.5,1.4,7.4,2.1,11.4,2.1
			c0.9,0,1.8,0,2.6-0.1l15.6,9l26.7,46.3c-0.1,1.1-0.2,2.1-0.2,3.2c0,3.3,0.5,6.5,1.5,9.5c-0.3,0-0.5-0.1-0.8-0.1
			c-4.1,0-7.4,3.3-7.4,7.4C445.6,176.3,446.1,177.7,446.9,179z M174.1,360L128,280.2v-92.1l0.6-1c4.7-2,8.8-5,12.1-8.8
			c1.3,2.3,3.7,3.9,6.5,3.9c2,0,3.8-0.8,5.2-2.1l4.2,3.6c-5.6,15.8-8.6,32.8-8.6,50.5c0,55.5,29.9,104.2,74.5,130.7l-2.2,3.8
			c-1-0.5-2-0.7-3.2-0.7c-3.9,0-7.1,3.1-7.4,6.9c-3.7-1.5-7.7-2.3-11.9-2.3c-0.6,0-1.3,0-1.9,0.1L174.1,360z M194.6,372.6
			c-4,0.4-7.8,1.6-11.2,3.3l-8.5-14.7L194.6,372.6z M148.2,157.8c0-1.4-0.1-2.8-0.3-4.2l26.2-45.3l15.7-9.1c1.1,0.1,2.1,0.2,3.2,0.2
			c4.4,0,8.6-0.9,12.5-2.6c0.2,4,3.4,7.2,7.4,7.2c1.3,0,2.5-0.4,3.6-1l2,2.8c-28,17.9-49.9,44.7-61.4,76.4l-3.8-3.3
			c0.8-1.2,1.4-2.7,1.4-4.3c0-4.1-3.3-7.4-7.4-7.4c-0.1,0-0.3,0-0.4,0C147.7,164.3,148.2,161.1,148.2,157.8z M134.1,131.4l38.8-22.4
			l-25.1,43.5C146.3,143.7,141.2,136.2,134.1,131.4z M174.8,107.1l5.9-10.2c2.5,1.1,5.2,1.8,8,2.2L174.8,107.1z M424.8,266.2v-64.1
			l16,27.7c0,1.5,0.1,2.9,0.1,4.4c0,1.5,0,2.9-0.1,4.4L424.8,266.2z M440.7,240c-0.9,21.3-6.5,41.5-15.9,59.3v-31.8L440.7,240z
			 M424.8,200.7v-1.1l9.5-8c3.7,11.7,5.9,24,6.5,36.7L424.8,200.7z M424.8,197.7v-28.8c3.5,6.8,6.6,13.8,9,21.2L424.8,197.7z
			 M379.3,110.9l2.3-3.2c27.5,17.8,48.8,44.4,60.1,75.7l-3.2,2.7C427.6,154.9,406.6,128.5,379.3,110.9z M341.5,298.4
			c-3.9,0-7.1,3.1-7.4,6.9h-67.9c-0.3-3.9-3.5-6.9-7.4-6.9c-1.3,0-2.5,0.3-3.5,0.9l-34.1-59c1.9-1.3,3.2-3.6,3.2-6.1
			c0-2.5-1.3-4.8-3.2-6.1l34.1-59c1,0.6,2.2,0.9,3.5,0.9c3.9,0,7.1-3.1,7.4-6.9h67.9c0.3,3.9,3.5,6.9,7.4,6.9c1.1,0,2.2-0.3,3.1-0.7
			l34,58.9c-1.9,1.3-3.2,3.6-3.2,6.1c0,2.5,1.3,4.7,3.2,6.1l-34,58.9C343.7,298.7,342.7,298.4,341.5,298.4z M362,341.7l-28.8,16.6
			h-66.5l-28.7-16.6l17.5-29.3c1,0.5,2.2,0.9,3.4,0.9c3.8,0,6.9-2.9,7.4-6.5h68c0.5,3.7,3.6,6.5,7.4,6.5c1.1,0,2.1-0.2,3-0.7
			L362,341.7z M253.9,156.9c-1.5,1.4-2.5,3.3-2.5,5.5c0,2.3,1.1,4.4,2.8,5.7L220,227.3c-0.9-0.4-1.9-0.6-3-0.6c-2,0-3.9,0.8-5.2,2.2
			l-35-29.8l32.2-55.8l25.3-14.6L253.9,156.9z M235.6,127.9l31.1-18h66.5l31.8,18.4l-19.9,27.6c-1.1-0.6-2.3-0.9-3.6-0.9
			c-3.8,0-6.9,2.9-7.4,6.5h-68c-0.5-3.7-3.6-6.5-7.4-6.5c-1.4,0-2.7,0.4-3.8,1.1L235.6,127.9z M345.9,168.5c1.9-1.4,3.1-3.5,3.1-6
			c0-2.3-1.1-4.3-2.7-5.7l19.9-27.7l24.6,14.2l32.3,55.9l-35,29.7c-1.3-1.3-3.2-2.1-5.2-2.1c-1.1,0-2.1,0.2-3,0.7L345.9,168.5z
			 M375.8,115.8l0.2-0.2c17.2,11.1,31.9,25.8,42.9,43.1l-27.5-15.9L375.8,115.8z M390.1,142l-23.5-13.6l8.7-12.1L390.1,142z
			 M365.4,127.7L334.6,110h31.9c2.6,1.4,5.2,2.9,7.7,4.4l0.4,0.6L365.4,127.7z M333.4,109.3l-27.6-15.9c21.3,0.9,41.5,6.5,59.3,15.9
			H333.4z M332,109.3h-64.1l27.7-16c1.5,0,2.9-0.1,4.4-0.1s2.9,0,4.4,0.1L332,109.3z M266.5,109.3h-31.8c17.9-9.4,38-15,59.3-15.9
			L266.5,109.3z M265.2,110l-30.1,17.4l-9.1-13.2c2.4-1.5,4.8-2.9,7.3-4.2H265.2z M233.9,128.1L209.8,142l15.4-26.6L233.9,128.1z
			 M208.5,142.7L181,158.6c11.1-17.4,25.9-32.3,43.4-43.4L208.5,142.7z M207.8,144l-31.5,54.6l-0.5-0.4v-30.6
			c1.4-2.6,2.9-5.2,4.5-7.7L207.8,144z M176.1,200.3l34.8,29.7c-0.8,1.2-1.3,2.6-1.3,4.2c0,4.1,3.3,7.4,7.4,7.4c1.1,0,2.1-0.2,3-0.6
			l34.1,59.1c-1.7,1.4-2.8,3.4-2.8,5.7c0,2.4,1.1,4.4,2.8,5.8L236.7,341L209,325l-33.3-57.6v-66.5L176.1,200.3z M207.8,324.3
			l-27.6-15.9c-1.6-2.5-3-5.1-4.5-7.7v-31.9L207.8,324.3z M208.5,325.6l15.9,27.5c-17.4-11.1-32.3-25.9-43.4-43.4L208.5,325.6z
			 M209.8,326.3l26.6,15.4l-8.2,13.7c-0.8-0.5-1.6-1-2.5-1.5L209.8,326.3z M237.6,342.3l27.7,16h-31.9c-1.3-0.7-2.7-1.5-4-2.2
			L237.6,342.3z M266.5,359l27.6,15.9c-21.3-0.9-41.5-6.5-59.3-15.9H266.5z M267.9,359H332l-27.7,16c-1.5,0-2.9,0.1-4.4,0.1
			s-2.9,0-4.4-0.1L267.9,359z M333.4,359h31.8c-17.9,9.4-38,15-59.3,15.9L333.4,359z M334.6,358.3l27.7-16l8.2,13.7
			c-1.3,0.8-2.7,1.5-4,2.3H334.6z M363.6,341.6l26.6-15.3l-15.9,27.6c-0.8,0.5-1.6,1-2.4,1.5L363.6,341.6z M391.4,325.6l27.5-15.9
			c-11.1,17.4-25.9,32.3-43.4,43.4L391.4,325.6z M392.1,324.3l32-55.5v31.9c-1.4,2.6-2.9,5.2-4.4,7.7L392.1,324.3z M390.8,325
			l-27.6,16l-17.4-29.1c1.9-1.3,3.2-3.6,3.2-6.1c0-2.5-1.2-4.7-3.1-6l34-58.9c0.9,0.4,2,0.7,3,0.7c4.1,0,7.4-3.3,7.4-7.4
			c0-1.6-0.5-3-1.3-4.2l34.8-29.5l0.3,0.5v66.5L390.8,325z M423.7,198.7L392.1,144l27.6,15.9c1.6,2.5,3,5.1,4.4,7.7v30.7
			L423.7,198.7z M378.1,110.1c-22.6-14.3-49.4-22.6-78.1-22.6c-28.3,0-54.7,8.1-77.1,22l-2.2-3.2c23.1-14.4,50.3-22.7,79.4-22.7
			c29.6,0,57.2,8.6,80.4,23.3L378.1,110.1z M221.6,110.3c-27.7,17.6-49.1,44.2-60.1,75.7l-3.2-2.7c11.4-31.6,33.1-58.4,61.1-76.2
			L221.6,110.3z M159.1,238.5c0-1.5-0.1-2.9-0.1-4.4c0-1.5,0-2.9,0.1-4.4l16-27.7v64.1L159.1,238.5z M175.1,267.6v31.8
			c-9.4-17.9-15-38-15.9-59.3L175.1,267.6z M159.1,228.2c0.5-12.8,2.8-25.2,6.5-36.9l9.4,8v1.3L159.1,228.2z M166.1,189.9
			c2.4-7.3,5.4-14.3,8.9-21v28.6L166.1,189.9z M149.4,234.1c0-17.3,3-34,8.4-49.5l3.2,2.7c-5,14.7-7.6,30.4-7.6,46.8
			c0,53.6,28.9,100.5,71.9,126.1l-2,3.4C179.1,337.3,149.4,289.1,149.4,234.1z M226.4,361c21.6,12.6,46.7,19.8,73.5,19.8
			c26.8,0,51.9-7.2,73.5-19.8l2,3.4c-22.2,12.9-48,20.4-75.6,20.4c-27.5,0-53.3-7.4-75.5-20.3L226.4,361z M374.7,360.2
			c43-25.6,71.9-72.5,71.9-126.1c0-16.3-2.7-31.9-7.6-46.6l3.2-2.7c5.4,15.5,8.3,32,8.3,49.3c0,55-29.6,103.2-73.8,129.4
			L374.7,360.2z M425,107.1l-13.7-7.9c2.8-0.3,5.4-1,8-2L425,107.1L425,107.1L425,107.1z M452.6,153.4L427,109l39.2,22.6
			C459,136.6,453.9,144.4,452.6,153.4z M407.5,41.7c14.3,0,26,11.7,26,26c0,14.3-11.7,26-26,26s-26-11.7-26-26
			C381.5,53.3,393.1,41.7,407.5,41.7z M385.1,90.1c-2.2,1.3-3.8,3.7-3.8,6.4c0,2.2,1,4.2,2.6,5.6l-2.6,3.7
			c-23.5-14.9-51.4-23.6-81.3-23.6c-29.4,0-56.9,8.4-80.2,22.9l-2-2.9c1.6-1.4,2.7-3.4,2.7-5.7c0-3.1-1.9-5.7-4.5-6.9
			c2.5-2.6,4.6-5.7,6.1-9l31.9-18.4H346l32.8,18.9C380.4,84.5,382.5,87.5,385.1,90.1z M224.3,62.3h28.1l-30,17.3
			c1.5-3.7,2.3-7.7,2.3-11.9C224.8,65.8,224.6,64,224.3,62.3z M378.3,80.1l-30.9-17.8h28.8c-0.3,1.8-0.5,3.6-0.5,5.4
			C375.8,72.1,376.7,76.3,378.3,80.1z M378.6,54.6c-1,2.2-1.8,4.5-2.2,6.9h-30.2l-40.4-23.4C331.6,39,356.2,44.7,378.6,54.6z
			 M299.9,38.1c1.5,0,2.9,0,4.3,0.1l40.5,23.4h0h-89.7l40.5-23.4C297,38.1,298.5,38.1,299.9,38.1z M294.1,38.2l-40.4,23.4h-29.5
			c-0.5-2.5-1.3-4.9-2.3-7.2C244.1,44.6,268.5,38.9,294.1,38.2z M193.1,41.7c14.3,0,26,11.7,26,26c0,14.3-11.7,26-26,26
			c-14.3,0-26-11.7-26-26C167,53.3,178.7,41.7,193.1,41.7z M169.1,88.4c3,3.5,6.8,6.3,11,8.2l-6.5,11.2L133.4,131c0,0,0,0,0,0
			C143.2,115.1,155.2,100.8,169.1,88.4z M90.5,157.8c0-14.3,11.7-26,26-26s26,11.7,26,26c0,14.3-11.7,26-26,26
			S90.5,172.1,90.5,157.8z M127.3,327c-14.1-26.1-22.4-55.6-23.4-87.1l23.4,40.4V327z M127.3,189.3V279L104,238.5
			c0-1.4-0.1-2.9-0.1-4.3c0-1.5,0-2.9,0.1-4.3L127.3,189.3L127.3,189.3z M127.3,187.9L104,228.3c0.4-13.6,2.2-26.9,5.3-39.7
			c2.3,0.6,4.8,0.9,7.3,0.9c3.8,0,7.4-0.7,10.8-1.9V187.9z M128,328.3v-46.7l44.8,77.6l-40.4-23.3C131,333.4,129.5,330.9,128,328.3z
			 M133.3,337.2l40.3,23.3l9.1,15.8c-3.5,1.9-6.7,4.5-9.2,7.5C157.8,370.5,144.2,354.8,133.3,337.2z M197.8,430.2
			c-14.3,0-26-11.7-26-26c0-14.3,11.7-26,26-26c14.3,0,26,11.7,26,26C223.8,418.5,212.1,430.2,197.8,430.2z M226.7,391.1l25.8,14.9
			h-23c0-0.6,0.1-1.2,0.1-1.9C229.5,399.5,228.5,395.1,226.7,391.1z M227.1,416.1c1.2-2.9,2-6.1,2.2-9.4h24.3l40.4,23.3
			C270.5,429.4,247.9,424.5,227.1,416.1z M299.9,430.2c-1.4,0-2.9,0-4.3-0.1l-40.5-23.4h89.7l-40.5,23.4
			C302.8,430.2,301.4,430.2,299.9,430.2z M305.8,430.1l40.4-23.3H370c0.3,3.4,1.1,6.6,2.3,9.6C351.6,424.6,329.2,429.4,305.8,430.1z
			 M369.9,404.2c0,0.6,0,1.2,0.1,1.9h-22.5l25.1-14.5C370.8,395.4,369.9,399.7,369.9,404.2z M373,390.4L346,406h-92.1l-27.7-16
			c-1.5-3-3.5-5.7-5.8-8.1c2.4-1.2,4.1-3.7,4.1-6.6c0-2.5-1.2-4.6-3-6l2.2-3.8c22.4,13.1,48.5,20.5,76.2,20.5
			c27.8,0,53.9-7.5,76.3-20.6l2.3,3.8c-1.8,1.4-3,3.5-3,6c0,2.8,1.5,5.1,3.8,6.4C376.7,384.2,374.6,387.2,373,390.4z M401.6,430.2
			c-14.3,0-26-11.7-26-26c0-14.3,11.7-26,26-26c14.3,0,26,11.7,26,26C427.6,418.5,416,430.2,401.6,430.2z M405.2,372.7l19.8-11.5
			l-8.6,14.9C413,374.3,409.2,373.1,405.2,372.7z M426.1,384.1c-2.5-3.1-5.6-5.6-9.1-7.6l9.2-16l40.4-23.3
			C455.7,354.9,442,370.7,426.1,384.1z M471.8,328.3c-1.4,2.6-2.9,5.1-4.4,7.6L427,359.3l44.8-77.6V328.3z M471.8,280.2L425.8,360
			L404,372.5c-0.8-0.1-1.6-0.1-2.4-0.1c-4,0-7.8,0.7-11.3,2.1c-0.4-3.8-3.5-6.7-7.4-6.7c-1.1,0-2.2,0.3-3.2,0.7l-2.3-3.8
			c44.5-26.5,74.5-75.2,74.5-130.7c0-17.6-3-34.5-8.6-50.3l4.5-3.8c1.3,1.3,3.2,2.1,5.2,2.1c2.9,0,5.4-1.7,6.6-4.1
			c3.1,3.7,7,6.7,11.4,8.7l0.8,1.4V280.2z M472.5,327v-46.6l23.4-40.5C495,271.4,486.6,300.9,472.5,327z M495.9,238.5L472.5,279
			v-89.6l23.4,40.5c0,1.4,0.1,2.9,0.1,4.3C496,235.6,496,237,495.9,238.5z M472.5,187.9v-0.6c3.6,1.4,7.4,2.2,11.5,2.2
			c2.3,0,4.5-0.2,6.6-0.7c3,12.7,4.8,26,5.2,39.5L472.5,187.9z M484,183.8c-14.3,0-26-11.7-26-26c0-14.3,11.7-26,26-26
			c14.3,0,26,11.7,26,26C510.1,172.1,498.4,183.8,484,183.8z"/>
		<path class="st1" d="M484,135.3c-12.4,0-22.5,10.1-22.5,22.5s10.1,22.5,22.5,22.5s22.5-10.1,22.5-22.5S496.4,135.3,484,135.3z
			 M484,178.8c-11.6,0-21-9.4-21-21c0-11.6,9.4-21,21-21s21,9.4,21,21C505.1,169.4,495.6,178.8,484,178.8z"/>
		<path class="st1" d="M407.5,90.1c12.4,0,22.5-10.1,22.5-22.5s-10.1-22.5-22.5-22.5S385,55.3,385,67.7S395.1,90.1,407.5,90.1z
			 M407.5,46.6c11.6,0,21,9.4,21,21s-9.4,21-21,21c-11.6,0-21-9.4-21-21S395.9,46.6,407.5,46.6z"/>
		<path class="st1" d="M197.8,381.7c-12.4,0-22.5,10.1-22.5,22.5s10.1,22.5,22.5,22.5c12.4,0,22.5-10.1,22.5-22.5
			S210.2,381.7,197.8,381.7z M197.8,425.2c-11.6,0-21-9.4-21-21s9.4-21,21-21c11.6,0,21,9.4,21,21S209.4,425.2,197.8,425.2z"/>
		<path class="st1" d="M401.6,381.7c-12.4,0-22.5,10.1-22.5,22.5s10.1,22.5,22.5,22.5s22.5-10.1,22.5-22.5S414,381.7,401.6,381.7z
			 M401.6,425.2c-11.6,0-21-9.4-21-21s9.4-21,21-21s21,9.4,21,21S413.2,425.2,401.6,425.2z"/>
		<path class="st1" d="M119.2,151.4c0.1,0,0.2,0.1,0.3,0.1c0.1,0.1,0.2,0.1,0.3,0.2c0.2,0.1,0.4,0.2,0.5,0.4
			c0.4,0.3,0.7,0.8,0.9,1.1c0.2,0.4,0.2,0.5,0.1,0.7c0,0.2-0.3,0.5-0.7,0.8c-0.9,0.6-2.1,0.9-3.6,1c1,1.2,2.7,1.7,4.4,1.3
			c0.8-0.2,1.8-0.7,2.4-1.7c0.6-1,0.5-2.4,0.2-3.3c-0.4-0.9-0.8-1.6-1.4-2.2c-0.6-0.6-1.4-1.3-2.4-1.6c-0.5-0.2-1-0.2-1.4-0.3
			c-0.5,0-1,0-1.4,0.1c-0.9,0.2-1.7,0.4-2.4,0.8c-2.8,1.5-4.8,3.6-6.7,5.7c-0.8,1-1.6,1.7-2.7,2.2c-1.1,0.5-2.3,0.8-3.8,0.8
			c1.1,1,2.7,1.4,4.3,1.2c0.8-0.1,1.6-0.4,2.3-0.7c0.7-0.4,1.4-0.9,1.9-1.4c2-1.8,4.1-3.6,6.1-4.6
			C117.5,151.4,118.5,151.2,119.2,151.4z"/>
		<path class="st1" d="M119.8,165.7c2.8-1.5,4.8-3.6,6.7-5.7c0.8-1,1.6-1.7,2.7-2.2c1.1-0.5,2.3-0.8,3.8-0.8c-1.1-1-2.7-1.4-4.3-1.2
			c-0.8,0.1-1.6,0.4-2.3,0.7c-0.7,0.4-1.4,0.9-1.9,1.4c-2,1.8-4.1,3.6-6.1,4.6c-1,0.5-2,0.7-2.7,0.5c-0.1,0-0.2-0.1-0.3-0.1
			c-0.1-0.1-0.2-0.1-0.3-0.2c-0.2-0.1-0.4-0.2-0.5-0.4c-0.4-0.3-0.7-0.8-0.9-1.1c-0.2-0.4-0.2-0.5-0.1-0.7c0-0.2,0.3-0.5,0.7-0.8
			c0.9-0.6,2.1-0.9,3.6-1c-1-1.2-2.7-1.7-4.4-1.3c-0.8,0.2-1.8,0.7-2.4,1.7c-0.6,1-0.5,2.4-0.2,3.3c0.4,0.9,0.8,1.6,1.4,2.2
			c0.6,0.6,1.4,1.3,2.4,1.6c0.5,0.2,1,0.2,1.4,0.3c0.5,0,1,0,1.4-0.1C118.3,166.4,119.1,166.1,119.8,165.7z"/>
		<path class="st1" d="M186.7,72.4c5-0.6,6.7,8.9,6.7,8.9s1.7-9.5,6.7-8.9c5,0.6,6.6,3.7,6.6,3.7s0-4.5-4.9-11.8l-0.4,2.3
			c0,0-7.3-11.3-8.1-14.7c-0.8,3.4-8.1,14.7-8.1,14.7l-0.4-2.3c-4.9,7.3-4.9,11.8-4.9,11.8S181.7,73,186.7,72.4z M188.2,68.5
			c1-1.5,3.2-5,5.1-8.5c1.9,3.4,4.2,6.9,5.1,8.5l0.3,0.4c-2.3,0.3-4.1,1.6-5.4,3.4c-1.3-1.7-3.1-3.1-5.4-3.4L188.2,68.5z"/>
		<path class="st1" d="M403.9,79.5c6,3.2,3.1,4.2,3.4,4.1c20.1-4.3,10.3-14.5,9.7-15.2c5.8,6.4-4.4,8.8-2.5,2
			c2-6.8-6.7-10.5-8.8-12.4c-2.1-1.9,1.1-6.7,1.1-6.7c-5.3,2-5,7.1-3.8,12.3c1.2,5.2-3,6.2-4.3,5.7c-1.3-0.5-0.4-3.8-0.4-3.8
			C394.1,71.7,398,76.3,403.9,79.5z M404.4,74c1.9,0.4,3.7-0.9,3.8-2.8c0.3-3.6-0.9-7.8-0.9-7.8c3.9,3.2,4.6,8.6,4.5,12.4
			c0,0.9,0.7,1.6,1.6,1.6c0.5,0,0.8,0.1,0.8,0.1c-0.4,0.8-1.7,1.8-2.7,2.5l-0.2,0.1l-1.4,0.8l-0.2,0.1l0,0c0,0-0.1,0-0.2-0.1
			c0.3-0.1,0.8-0.4,1.3-0.8l-1.4,0.8c-1.2-0.6-7.3-4-8.7-6.8C400.8,73.9,402.5,73.6,404.4,74z"/>
		<path class="st1" d="M491.5,147.1l-1.4-1.8l-2.4-0.1l-3-0.9l-3.4,1.2l-3,3.9l-5,3c0,0-1.6,3-1.8,3.6c-0.2,0.6,0.6,5.5,0.6,5.5
			s3.2,3.6,3.3,3.9c0.1,0.2,3.4,4.7,3.4,4.7l4.8,0.2c0,0,0.6-1.3,0.9-1.7c0.3-0.4,2.4-3.5,2.4-3.5s4.9-0.8,5-1.7
			c0.1-1,4.5-5.4,4.5-5.4s0.1-0.4,0.5-1.4c0.3-1-1.2-6.1-1.2-6.1L491.5,147.1z M491,157.7c0,0-0.1,0.1-0.1,0.1l-7.1,4.2
			c0.5,0.1,1.1,0.2,1.8,0.2c0.5,0,1,0.4,1,0.9c0,0.3-0.1,0.6-0.3,0.8c-0.2,0.1-0.3,0.2-0.6,0.2c-4.5,0.2-6.2-2.6-6.3-2.7
			c0,0,0-0.1,0-0.1l0,0l-2.4-4c-0.1,0.5-0.2,1.2-0.2,1.9c0,0.3-0.1,0.6-0.3,0.8c-0.2,0.1-0.4,0.2-0.6,0.2c-0.5,0-1-0.4-1-0.9
			c-0.2-4.5,2.6-6.2,2.7-6.3c0,0,0,0,0,0c0,0,0.1-0.1,0.1-0.1l4.8-2.9c-0.3,0-0.6,0-1,0c-0.5,0-1-0.4-1-0.9c0-0.5,0.4-1,0.9-1
			c2.2-0.1,3.7,0.5,4.7,1.1c0.6,0.2,1.1,0.6,1.4,1.2l0.2,0.3c0,0,0,0,0,0l0.4,0.6c0-0.4,0.1-0.8,0.1-1.3c0-0.5,0.4-1,0.9-1
			c0.5,0,1,0.4,1,0.9c0.1,2.6-0.8,4.3-1.5,5.2c-0.3,0.4-0.6,0.7-1,0.9l-2.5,1.5c-0.7,0.4-1.4,0.5-2.2,0.3c-0.7-0.2-1.4-0.7-1.8-1.3
			l-0.3-0.6c-0.3-0.5-0.1-1,0.3-1.3c0.5-0.3,1-0.1,1.3,0.3l0.3,0.6c0.1,0.2,0.3,0.4,0.6,0.4c0.3,0.1,0.5,0,0.7-0.1l2.3-1.4
			c0,0,0,0,0,0c0,0,0.3-0.2,0.5-0.5c0-0.1,0.1-0.1,0.1-0.2c0.1-0.3,0-0.5-0.1-0.7l-0.9-1.4c0,0-0.3-0.4-0.8-0.8
			c-0.2,0-0.5,0-0.7,0.1l-5.9,3.5c-0.5,0.3-0.6,0.9-0.3,1.3l2.7,4.4c0.3,0.5,0.9,0.6,1.3,0.3l7.5-4.5c0.5-0.3,1-0.1,1.3,0.3
			C491.4,156.9,491.3,157.4,491,157.7z"/>
		<path class="st1" d="M205,399.1l0-3.3l-2.7,4.5c-0.5,0.2-0.9,0.4-1.3,0.6l0-2.3l-1.8,1.1c0-0.5-0.1-0.9-0.1-1.4l2.6-4.6l-2.8,1.6
			c-0.2-1.7-0.5-3.3-0.9-5c-0.4,1.7-0.7,3.3-0.9,5l-2.8-1.6l2.6,4.6c0,0.5-0.1,1-0.1,1.4l-1.9-1.1l0,2.2c-0.4-0.2-0.9-0.4-1.3-0.6
			l-2.7-4.5l0,3.3c-1.5-0.6-3.1-1.2-4.8-1.6c1.2,1.2,2.5,2.2,3.9,3.2l-2.8,1.7l5.2,0c0.4,0.3,0.8,0.5,1.2,0.8l-1.9,1.1l1.8,1
			c-0.4,0.2-0.7,0.5-1.1,0.7l-5.2,0l2.8,1.7c-1.3,1-2.7,2-3.9,3.2c1.7-0.4,3.2-1,4.8-1.6l0,3.3l2.7-4.5c0.4-0.2,0.9-0.4,1.3-0.6
			l0,2.3l1.8-1.1c0,0.5,0.1,0.9,0.1,1.4l-2.6,4.6l2.8-1.6c0.2,1.7,0.5,3.3,0.9,5c0.4-1.7,0.7-3.3,0.9-5l2.8,1.6L199,410
			c0-0.5,0.1-1,0.1-1.4l1.9,1.1l0-2.2c0.4,0.2,0.9,0.4,1.3,0.6l2.7,4.5l0-3.3c1.5,0.6,3.1,1.2,4.8,1.6c-1.2-1.2-2.5-2.2-3.9-3.2
			l2.8-1.7l-5.2,0c-0.4-0.3-0.8-0.5-1.2-0.8l1.9-1.1l-1.8-1c0.4-0.2,0.7-0.5,1.1-0.7l5.2,0l-2.8-1.7c1.3-1,2.7-2,3.9-3.2
			C208.1,397.9,206.5,398.5,205,399.1z"/>
		<path class="st1" d="M294.9,242.4l-1.8,3.1c-0.2,0.3-0.1,0.8,0.3,1c0.1,0.1,0.2,0.1,0.4,0.1c0.2,0,0.5-0.1,0.6-0.4l2.2-3.8h7.8
			l2.2,3.8c0.2,0.3,0.6,0.5,1,0.3c0.3-0.2,0.5-0.6,0.3-1l-1.8-3.1h6.8L300.5,221l-12.4,21.4H294.9z M297.4,241l3.1-5.4l3.1,5.4
			H297.4z M310.4,241h-5.2l-4.7-8.2l-4.7,8.2h-5.2l9.9-17.1L310.4,241z"/>
		<path class="st1" d="M408.3,398.4c-5,0.6-6.7-8.9-6.7-8.9s-1.7,9.5-6.7,8.9c-5-0.6-6.6-3.7-6.6-3.7s0,4.5,4.9,11.8l0.4-2.3
			c0,0,7.3,11.3,8.1,14.7c0.8-3.4,8.1-14.7,8.1-14.7l0.4,2.3c4.9-7.3,4.9-11.8,4.9-11.8S413.2,397.8,408.3,398.4z M400.3,407.3
			l-2.1-1.2l-2.1-0.9l-1.1-4.3l3.3,2.5l2.3,3.4l0.3,0.3L400.3,407.3z M407.1,405.3l-2.1,0.9l-2.1,1.2l-0.6-0.1l0.3-0.3l2.3-3.4
			l3.3-2.5L407.1,405.3z"/>
	</g>
	<g>
		<path class="st2" d="M300.3,461.8c-2.8,0-5.1-2-5.6-4.7c-0.3-1.4-25.9-141-96.1-132.4c-72.6,9-97,54-97.2,54.5
			c-1.2,2.3-3.9,3.5-6.4,2.9c-2.5-0.6-4.3-2.9-4.3-5.5c0-2.9,0.9-72.3,75.8-184.3c1.3-1.9,3.7-2.9,6-2.4c2.3,0.5,4,2.4,4.4,4.7
			l3.2,20.5C205.8,174.3,285.1,46.8,294.7,4.4c0.6-2.6,2.9-4.4,5.6-4.4c2.7,0,5,1.8,5.6,4.4c9.6,42.3,88.9,169.9,114.8,210.7
			l3.2-20.5c0.4-2.3,2.1-4.2,4.4-4.7c2.3-0.5,4.7,0.4,6,2.4c74.9,112,75.8,181.4,75.8,184.3c0,2.6-1.8,4.9-4.3,5.5
			c-2.5,0.6-5.2-0.6-6.4-2.9c-0.2-0.4-25-45.5-97.2-54.5c-70.1-8.7-95.8,131-96.1,132.4C305.4,459.8,303,461.8,300.3,461.8z
			 M205.1,313c56.2,0,84.3,77,95.2,117.8c11.4-42.6,41.6-124.9,103.1-117.3c49,6.1,77.7,27.4,92.6,43c-5-26.4-19.8-77.3-63.2-145.5
			l-3.2,20.8c-0.4,2.3-2.1,4.2-4.4,4.7c-2.3,0.5-4.7-0.5-6-2.5c-4.2-6.5-93.6-145.3-118.8-209.9C275,88.7,185.6,227.5,181.4,234
			c-1.3,2-3.7,3-6,2.5c-2.3-0.5-4.1-2.4-4.4-4.7l-3.2-20.8c-43.4,68.1-58.2,119.1-63.2,145.5c14.9-15.6,43.6-36.9,92.6-43
			C199.9,313.1,202.5,313,205.1,313z"/>
		<g>
			<path class="st2" d="M296.9,446.7c-2.6,0-4.9-1.7-5.5-4.3c-8.3-33-32.8-109-81.7-102.9c-52.3,6.5-76.2,33.4-84,44.7
				c-3.2,4.6-9,6.3-14.2,4.3l-17.2-6.7c-2.8-1.1-4.3-4.2-3.3-7.1l4.7-14.4c0.3-0.9,0.8-1.6,1.4-2.3l23.6-23.5
				c1.2-1.2,2.8-1.8,4.5-1.6l6.6,0.5c0.7,0.1,1.3,0.2,1.9,0.5c18.4-10.7,39.8-17.6,63.6-20.5l0,0c65.2-8.1,95.4,85.6,105.3,126.3
				c0.7,3-1.1,6.1-4.2,6.9C297.9,446.7,297.4,446.7,296.9,446.7z M103.4,373.2l12.2,4.7c0.2,0.1,0.6,0.1,0.7-0.2
				c8.7-12.5,35.2-42.5,92-49.5c5.8-0.7,11.2-0.5,16.4,0.4c-8.3-3.7-17-5-26.1-3.9c0,0,0,0,0,0c-24.2,3-45.6,10.3-63.6,21.7
				c-1.5,1-3.4,1.1-5,0.5c-1.2-0.5-2.2-1.3-2.9-2.4l-0.3,0L106,365.2L103.4,373.2z"/>
			<path class="st2" d="M303.6,446.7c-0.5,0-0.9-0.1-1.4-0.2c-3-0.8-4.9-3.8-4.2-6.9c9.9-40.7,40.1-134.3,105.3-126.3
				c23.3,2.9,44.3,9.6,62.5,19.9c6.1-0.8,13.7-1.6,14.1-1.7c1.6-0.2,3.3,0.4,4.5,1.5l14.1,12.9c0.7,0.6,1.2,1.4,1.5,2.3l9.6,26.3
				c1.1,2.9-0.4,6.1-3.3,7.2l-17.2,6.7c-5.2,2-11,0.3-14.2-4.3c-7.9-11.3-31.8-38.2-84-44.7c-49-6.1-73.5,69.9-81.8,102.9
				C308.4,445,306.1,446.7,303.6,446.7z M385.2,327.8c2.3,0,4.6,0.1,7.1,0.4c56.8,7,83.2,37,92,49.5c0.2,0.2,0.5,0.3,0.7,0.2l12-4.7
				l-7.2-19.8l-11.2-10.2c-3.3,0.4-9,1-13.2,1.6c-1.3,0.2-2.5-0.1-3.6-0.7c-17.3-10.1-37.4-16.7-59.9-19.4
				c-9.1-1.1-17.8,0.2-26.2,3.9C378.8,328.1,382,327.8,385.2,327.8z"/>
			<path class="st2" d="M428.4,241.7c-0.9,0-1.9-0.2-2.7-0.7l-15.1-8.2c-2.7-1.5-3.8-4.8-2.4-7.6l16.1-31.8c1.2-2.4,3.9-3.6,6.5-3
				c2.6,0.6,4.4,3,4.3,5.7l-1,40c0,2-1.1,3.8-2.8,4.8C430.3,241.4,429.4,241.7,428.4,241.7z M420.9,225.4l2.1,1.1l0.1-5.4
				L420.9,225.4z"/>
			<path class="st2" d="M169.7,249.5c-0.8,0-1.6-0.2-2.5-0.6c-2.3-1.1-3.6-3.7-3.2-6.2c0.3-3,1-30.6,1.4-47.4
				c0.1-2.6,1.9-4.8,4.4-5.4c2.5-0.6,5.2,0.7,6.3,3l14.7,29c1,2,0.8,4.4-0.6,6.1c0,0-3.9,4.9-7.9,9.8c-2.3,2.9-4.2,5.1-5.6,6.8
				C174.7,247,172.5,249.5,169.7,249.5z M164.1,242.4c0,0.1,0,0.2-0.1,0.3C164,242.6,164.1,242.5,164.1,242.4z M176.3,218.2
				c-0.1,3.6-0.2,6.7-0.3,9.4c1-1.3,2.1-2.6,3.1-3.8L176.3,218.2z"/>
		</g>
		<g>
			<linearGradient id="SVGID_1_" gradientUnits="userSpaceOnUse" x1="173.1684" y1="350.4964" x2="157.097" y2="315.9079">
				<stop  offset="1.282051e-02" style="stop-color:#3E0F00"/>
				<stop  offset="1" style="stop-color:#000000"/>
			</linearGradient>
			<path class="st3" d="M197.9,319.1c-28.8,3.5-50.3,12.6-65.9,22.5l-0.7-2.4l-6.6-0.5L101,362.1l-4.7,14.4l17.2,6.7
				c2.7,1.1,5.8,0.2,7.5-2.2c7.6-10.9,32.9-40.3,88-47.1c53.7-6.7,79.4,73.1,88,107.1C287.9,403.9,259.1,311.5,197.9,319.1z"/>
			<linearGradient id="SVGID_2_" gradientUnits="userSpaceOnUse" x1="413.6425" y1="354.3853" x2="419.5819" y2="321.1944">
				<stop  offset="1.282051e-02" style="stop-color:#3E0F00"/>
				<stop  offset="1" style="stop-color:#000000"/>
			</linearGradient>
			<path class="st4" d="M494.7,350.2l-14.1-12.9c0,0-9.5,1.1-15.9,1.9c-15.3-8.9-35.5-16.9-62-20.2c-61.2-7.6-90,84.8-99.1,122
				c8.5-34.1,34.3-113.8,88-107.1c55.2,6.8,80.4,36.2,88,47.1c1.7,2.4,4.8,3.3,7.5,2.2l17.2-6.7L494.7,350.2z"/>
			<polygon class="st5" points="429.3,196 413.3,227.8 428.4,236 			"/>
			<path class="st5" d="M185.8,224.5l-14.7-29c0,0-1.1,46.3-1.5,48.2C169.2,245.5,185.8,224.5,185.8,224.5z"/>
		</g>
		<linearGradient id="SVGID_3_" gradientUnits="userSpaceOnUse" x1="430.8991" y1="438.7132" x2="83.6169" y2="69.0708">
			<stop  offset="0.1051" style="stop-color:#FCBE40"/>
			<stop  offset="0.3051" style="stop-color:#7F532D"/>
			<stop  offset="0.6128" style="stop-color:#FCBE40"/>
			<stop  offset="1" style="stop-color:#FFF24E"/>
		</linearGradient>
		<path class="st6" d="M429.4,195.5l-5.5,35.4c0,0-111.8-173.2-123.6-225.2c-11.8,52-123.6,225.2-123.6,225.2l-5.5-35.4
			C96.3,307.3,96.3,376.6,96.3,376.6s25.2-48,101.6-57.5s102.4,137,102.4,137s26-146.5,102.4-137s101.6,57.5,101.6,57.5
			S504.2,307.3,429.4,195.5z"/>
		<g>
			<linearGradient id="SVGID_4_" gradientUnits="userSpaceOnUse" x1="300.2777" y1="46.215" x2="300.2777" y2="404.3313">
				<stop  offset="0" style="stop-color:#FFFFFF"/>
				<stop  offset="0.221" style="stop-color:#A8924B"/>
				<stop  offset="0.6128" style="stop-color:#FCBE40"/>
				<stop  offset="1" style="stop-color:#FFF24E"/>
			</linearGradient>
			<path class="st7" d="M300.3,403c-15.2-43.2-44.6-98.3-95.4-98.3c-2.9,0-5.8,0.2-8.7,0.5c-34.8,4.3-60,16.1-77.5,28.4
				c7.1-24.2,20.2-57.9,44.4-99.1l5.4,34.8l19.9-30.8c3.8-5.9,79.3-123.2,111.9-193.6c32.6,70.4,108.1,187.7,111.9,193.6l19.9,30.8
				l5.4-34.8c24.2,41.2,37.3,74.9,44.4,99.1c-17.6-12.4-42.8-24.1-77.5-28.4c-2.9-0.4-5.9-0.5-8.7-0.5
				C344.9,304.7,315.5,359.8,300.3,403z"/>
			<path class="st8" d="M300.3,48.2c33.4,71.1,107.5,186.1,110.7,191l19.9,30.8l2,3.1l0.6-3.7l4.8-30.8
				c18.4,31.9,32.2,62.6,41.1,91.5c-21.1-14-46.3-22.9-74.8-26.4c-3-0.4-6-0.6-8.9-0.6c-49.6,0-79.1,51-95.4,95.5
				c-16.3-44.4-45.8-95.5-95.4-95.5c-2.9,0-5.9,0.2-8.9,0.6c-28.6,3.5-53.7,12.4-74.8,26.4c8.9-28.9,22.7-59.6,41.1-91.5l4.8,30.8
				l0.6,3.7l2-3.1l19.9-30.8C192.8,234.3,266.9,119.2,300.3,48.2 M300.3,44.9c-32.6,70.4-108.1,187.7-111.9,193.6l-19.9,30.8
				l-5.4-34.8c-24.2,41.2-37.3,74.9-44.4,99.1c17.6-12.4,42.8-24.1,77.5-28.4c2.9-0.4,5.9-0.5,8.7-0.5c50.7,0,80.1,55.1,95.4,98.3
				c15.2-43.2,44.6-98.3,95.4-98.3c2.9,0,5.8,0.2,8.7,0.5c34.8,4.3,60,16.1,77.5,28.4c-7.1-24.2-20.2-57.9-44.4-99.1l-5.4,34.8
				l-19.9-30.8C408.3,232.5,332.8,115.3,300.3,44.9L300.3,44.9z"/>
		</g>
		<linearGradient id="SVGID_5_" gradientUnits="userSpaceOnUse" x1="180.3909" y1="240.9081" x2="292.7086" y2="41.0284">
			<stop  offset="0" style="stop-color:#521500"/>
			<stop  offset="0.1538" style="stop-color:#71371A"/>
			<stop  offset="0.3359" style="stop-color:#7F532D"/>
			<stop  offset="0.6128" style="stop-color:#FCBE40"/>
			<stop  offset="0.8256" style="stop-color:#FFF24E"/>
			<stop  offset="1" style="stop-color:#FFF6A8"/>
		</linearGradient>
		<path class="st9" d="M300.3,5.7v39.1c0,0,0,0,0,0c-32.6,70.4-108.1,187.7-111.9,193.6l-19.9,30.8l8.2-38.4
			C177.5,229.6,288.5,57.5,300.3,5.7C300.3,5.7,300.3,5.7,300.3,5.7z"/>
		<g>
			<path class="st10" d="M140.7,336.5c-0.5,0.3-1,0.5-1.5,0.8C139.8,337,140.2,336.8,140.7,336.5z"/>
			<path class="st10" d="M99.3,371.9c-0.1,0.2-0.3,0.4-0.4,0.6C99,372.3,99.2,372.1,99.3,371.9z"/>
			<path class="st10" d="M100.4,370.4c-0.2,0.2-0.3,0.4-0.5,0.6C100.1,370.8,100.2,370.6,100.4,370.4z"/>
			<path class="st10" d="M108.6,360.6c-0.3,0.3-0.5,0.6-0.8,0.9C108,361.2,108.3,360.9,108.6,360.6z"/>
			<path class="st10" d="M113.2,356c-0.3,0.3-0.6,0.6-0.9,0.9C112.6,356.6,112.9,356.3,113.2,356z"/>
			<path class="st10" d="M97.7,374.3c-0.1,0.2-0.2,0.3-0.3,0.5C97.5,374.6,97.6,374.5,97.7,374.3z"/>
			<path class="st10" d="M145.3,334.2c-0.5,0.3-1,0.5-1.5,0.8C144.2,334.7,144.7,334.5,145.3,334.2z"/>
			<path class="st10" d="M101.7,368.7c-0.2,0.2-0.4,0.5-0.5,0.7C101.3,369.1,101.5,368.9,101.7,368.7z"/>
			<path class="st10" d="M132.5,341.3c-0.5,0.3-0.9,0.6-1.4,0.9C131.6,341.9,132,341.6,132.5,341.3z"/>
			<path class="st10" d="M115.9,353.6c-0.3,0.3-0.7,0.6-1,0.9C115.2,354.2,115.5,353.9,115.9,353.6z"/>
			<path class="st10" d="M106.6,362.8c-0.3,0.3-0.5,0.5-0.7,0.8C106.1,363.4,106.3,363.1,106.6,362.8z"/>
			<path class="st10" d="M104.7,364.9c-0.2,0.3-0.4,0.5-0.7,0.8C104.3,365.4,104.5,365.2,104.7,364.9z"/>
			<path class="st10" d="M128.7,343.7c-0.4,0.3-0.9,0.6-1.3,0.9C127.8,344.3,128.2,344,128.7,343.7z"/>
			<path class="st10" d="M136.5,338.9c-0.5,0.3-1,0.6-1.4,0.9C135.5,339.4,136,339.1,136.5,338.9z"/>
			<path class="st10" d="M103.1,366.9c-0.2,0.3-0.4,0.5-0.6,0.7C102.7,367.4,102.9,367.1,103.1,366.9z"/>
			<path class="st10" d="M98.4,373.2c-0.1,0.2-0.2,0.4-0.3,0.5C98.2,373.5,98.3,373.4,98.4,373.2z"/>
			<path class="st10" d="M160.3,327.9c-0.5,0.2-1,0.4-1.5,0.6C159.3,328.2,159.8,328,160.3,327.9z"/>
			<path class="st10" d="M125.2,346.2c-0.4,0.3-0.8,0.6-1.2,0.9C124.3,346.8,124.7,346.5,125.2,346.2z"/>
			<path class="st10" d="M109.9,359.2c0.3-0.3,0.6-0.6,0.9-0.9C110.5,358.7,110.2,358.9,109.9,359.2z"/>
			<path class="st10" d="M118.8,351.2c-0.4,0.3-0.7,0.6-1.1,0.9C118,351.8,118.4,351.5,118.8,351.2z"/>
			<path class="st10" d="M165.9,326c-0.5,0.1-0.9,0.3-1.3,0.4C165,326.3,165.4,326.1,165.9,326z"/>
			<path class="st10" d="M97.1,375.2c-0.1,0.1-0.2,0.3-0.2,0.4C97,375.5,97,375.4,97.1,375.2z"/>
			<path class="st10" d="M298.2,446.2c1.4,6.2,2.1,9.9,2.1,9.9v0C300.3,456,299.6,452.3,298.2,446.2z"/>
			<path class="st10" d="M171.7,324.3c-0.4,0.1-0.7,0.2-1,0.3C171,324.5,171.3,324.4,171.7,324.3z"/>
			<path class="st10" d="M121.8,348.7c-0.4,0.3-0.8,0.6-1.2,0.9C121.1,349.3,121.4,349,121.8,348.7z"/>
			<path class="st10" d="M96.7,375.9c-0.1,0.1-0.1,0.2-0.2,0.3C96.6,376.1,96.6,376,96.7,375.9z"/>
			<path class="st10" d="M150,332c-0.5,0.2-1,0.5-1.5,0.7C149,332.5,149.5,332.2,150,332z"/>
			<path class="st10" d="M96.3,376.6c0,0,0.1-0.1,0.1-0.2C96.4,376.5,96.4,376.5,96.3,376.6C96.3,376.6,96.3,376.6,96.3,376.6z"/>
			<path class="st10" d="M177.8,322.7c-0.2,0-0.3,0.1-0.5,0.1C177.5,322.8,177.6,322.7,177.8,322.7z"/>
			<path class="st10" d="M155,329.9c-0.5,0.2-1,0.4-1.5,0.6C154,330.3,154.5,330.1,155,329.9z"/>
			<path class="st10" d="M123.9,347.1c-0.7,0.5-1.4,1-2.1,1.6C122.5,348.2,123.2,347.7,123.9,347.1z"/>
			<path class="st10" d="M127.4,344.6c-0.8,0.5-1.5,1-2.2,1.6C125.9,345.7,126.6,345.2,127.4,344.6z"/>
			<path class="st10" d="M153.5,330.5c-1.2,0.5-2.4,1-3.5,1.5C151.2,331.5,152.3,331,153.5,330.5z"/>
			<path class="st10" d="M148.5,332.7c-1.1,0.5-2.2,1-3.2,1.5C146.3,333.7,147.4,333.2,148.5,332.7z"/>
			<path class="st10" d="M164.5,326.4c-1.4,0.5-2.8,0.9-4.2,1.4C161.7,327.4,163.1,326.9,164.5,326.4z"/>
			<path class="st10" d="M158.8,328.4c-1.3,0.5-2.6,1-3.8,1.4C156.3,329.4,157.6,328.9,158.8,328.4z"/>
			<path class="st10" d="M170.6,324.6c-1.6,0.5-3.2,0.9-4.8,1.4C167.4,325.5,169,325,170.6,324.6z"/>
			<path class="st10" d="M131.1,342.2c-0.8,0.5-1.6,1-2.4,1.6C129.5,343.2,130.3,342.7,131.1,342.2z"/>
			<path class="st10" d="M143.7,335c-1,0.5-2,1-3,1.5C141.7,336,142.7,335.5,143.7,335z"/>
			<path class="st10" d="M135.1,339.7c-0.9,0.5-1.7,1-2.6,1.6C133.3,340.8,134.2,340.2,135.1,339.7z"/>
			<path class="st10" d="M139.3,337.3c-0.9,0.5-1.9,1-2.8,1.6C137.4,338.3,138.3,337.8,139.3,337.3z"/>
			<path class="st10" d="M96.5,376.2c0,0.1-0.1,0.1-0.1,0.1C96.5,376.3,96.5,376.3,96.5,376.2z"/>
			<path class="st10" d="M96.9,375.6c-0.1,0.1-0.1,0.2-0.2,0.3C96.8,375.8,96.8,375.7,96.9,375.6z"/>
			<path class="st10" d="M98.1,373.7c-0.1,0.2-0.3,0.4-0.4,0.6C97.8,374.1,97.9,373.9,98.1,373.7z"/>
			<path class="st10" d="M97.4,374.8c-0.1,0.2-0.2,0.3-0.3,0.4C97.2,375.1,97.3,374.9,97.4,374.8z"/>
			<path class="st10" d="M98.9,372.4c-0.2,0.3-0.3,0.5-0.5,0.7C98.6,373,98.7,372.7,98.9,372.4z"/>
			<path class="st10" d="M197.9,319.1c-7.2,0.9-13.9,2.1-20.1,3.6C184.1,321.2,190.8,320,197.9,319.1
				c64.2-7.9,92.8,94.3,100.3,127.1C290.7,413.4,262.1,311.2,197.9,319.1z"/>
			<path class="st10" d="M177.3,322.8c-1.9,0.5-3.8,0.9-5.6,1.5C173.5,323.8,175.4,323.3,177.3,322.8z"/>
			<path class="st10" d="M110.8,358.4c0.5-0.5,1-1,1.5-1.5C111.8,357.4,111.3,357.9,110.8,358.4z"/>
			<path class="st10" d="M99.9,371c-0.2,0.3-0.4,0.6-0.6,0.9C99.5,371.6,99.7,371.3,99.9,371z"/>
			<path class="st10" d="M105.8,363.6c-0.4,0.4-0.7,0.8-1.1,1.3C105.1,364.5,105.5,364.1,105.8,363.6z"/>
			<path class="st10" d="M109.9,359.2c-0.5,0.5-0.9,0.9-1.4,1.4C109,360.2,109.5,359.7,109.9,359.2z"/>
			<path class="st10" d="M114.9,354.5c-0.6,0.5-1.1,1-1.6,1.5C113.8,355.5,114.3,355,114.9,354.5z"/>
			<path class="st10" d="M107.8,361.5c-0.4,0.5-0.8,0.9-1.2,1.3C107,362.4,107.4,361.9,107.8,361.5z"/>
			<path class="st10" d="M117.7,352.1c-0.6,0.5-1.2,1-1.8,1.5C116.5,353.1,117.1,352.6,117.7,352.1z"/>
			<path class="st10" d="M102.5,367.6c-0.3,0.4-0.6,0.7-0.9,1.1C101.9,368.3,102.2,368,102.5,367.6z"/>
			<path class="st10" d="M104.1,365.7c-0.3,0.4-0.7,0.8-1,1.2C103.4,366.5,103.7,366.1,104.1,365.7z"/>
			<path class="st10" d="M101.1,369.4c-0.3,0.3-0.5,0.7-0.7,1C100.6,370,100.9,369.7,101.1,369.4z"/>
			<path class="st10" d="M120.7,349.6c-0.7,0.5-1.3,1-1.9,1.5C119.4,350.7,120,350.1,120.7,349.6z"/>
			<linearGradient id="SVGID_6_" gradientUnits="userSpaceOnUse" x1="169.8596" y1="208.7046" x2="169.8596" y2="291.0062">
				<stop  offset="0" style="stop-color:#421411"/>
				<stop  offset="0.2461" style="stop-color:#6A2420;stop-opacity:0.7539"/>
				<stop  offset="0.6063" style="stop-color:#A9352F;stop-opacity:0.3937"/>
				<stop  offset="0.8672" style="stop-color:#D73C34;stop-opacity:0.1328"/>
				<stop  offset="1" style="stop-color:#EE3F36;stop-opacity:0"/>
			</linearGradient>
			<polygon class="st11" points="168.5,269.3 176.6,230.9 171.1,195.5 163.1,234.5 			"/>
			<linearGradient id="SVGID_7_" gradientUnits="userSpaceOnUse" x1="272.367" y1="378.5771" x2="101.369" y2="393.2472">
				<stop  offset="0" style="stop-color:#EE3F36;stop-opacity:0"/>
				<stop  offset="0.3099" style="stop-color:#A4342E;stop-opacity:0.3099"/>
				<stop  offset="0.6352" style="stop-color:#6B2521;stop-opacity:0.6352"/>
				<stop  offset="0.8746" style="stop-color:#4D1916;stop-opacity:0.8746"/>
				<stop  offset="1" style="stop-color:#421411"/>
			</linearGradient>
			<path class="st12" d="M300.3,403c-15.2-43.2-44.6-98.3-95.4-98.3c-2.9,0-5.8,0.2-8.7,0.5c-34.8,4.3-60,16.1-77.5,28.4
				c0,0-14.5,18.2-22.3,42.9c0,0,0-0.1,0.1-0.2c0,0,0-0.1,0.1-0.1c0.1-0.1,0.1-0.2,0.2-0.3c0.1-0.1,0.1-0.2,0.2-0.3
				c0.1-0.1,0.1-0.2,0.2-0.4c0.1-0.1,0.2-0.3,0.3-0.4c0.1-0.1,0.2-0.3,0.3-0.5c0.1-0.2,0.2-0.4,0.4-0.6c0.1-0.2,0.2-0.3,0.3-0.5
				c0.2-0.2,0.3-0.5,0.5-0.7c0.1-0.2,0.3-0.4,0.4-0.6c0.2-0.3,0.4-0.6,0.6-0.9c0.2-0.2,0.3-0.4,0.5-0.6c0.2-0.3,0.5-0.6,0.7-1
				c0.2-0.2,0.3-0.5,0.5-0.7c0.3-0.4,0.6-0.7,0.9-1.1c0.2-0.2,0.4-0.5,0.6-0.7c0.3-0.4,0.6-0.8,1-1.2c0.2-0.3,0.4-0.5,0.7-0.8
				c0.4-0.4,0.7-0.8,1.1-1.3c0.2-0.3,0.5-0.5,0.7-0.8c0.4-0.4,0.8-0.9,1.2-1.3c0.3-0.3,0.5-0.6,0.8-0.9c0.4-0.5,0.9-0.9,1.4-1.4
				c0.3-0.3,0.6-0.6,0.9-0.9c0.5-0.5,1-1,1.5-1.5c0.3-0.3,0.6-0.6,0.9-0.9c0.5-0.5,1.1-1,1.6-1.5c0.3-0.3,0.7-0.6,1-0.9
				c0.6-0.5,1.2-1,1.8-1.5c0.4-0.3,0.7-0.6,1.1-0.9c0.6-0.5,1.3-1,1.9-1.5c0.4-0.3,0.8-0.6,1.2-0.9c0.7-0.5,1.4-1,2.1-1.6
				c0.4-0.3,0.8-0.6,1.2-0.9c0.7-0.5,1.5-1,2.2-1.6c0.4-0.3,0.9-0.6,1.3-0.9c0.8-0.5,1.6-1,2.4-1.6c0.5-0.3,0.9-0.6,1.4-0.9
				c0.8-0.5,1.7-1,2.6-1.6c0.5-0.3,0.9-0.6,1.4-0.9c0.9-0.5,1.8-1,2.8-1.6c0.5-0.3,1-0.5,1.5-0.8c1-0.5,2-1,3-1.5
				c0.5-0.3,1-0.5,1.5-0.8c1-0.5,2.1-1,3.2-1.5c0.5-0.2,1-0.5,1.5-0.7c1.1-0.5,2.3-1,3.5-1.5c0.5-0.2,1-0.4,1.5-0.6
				c1.2-0.5,2.5-1,3.8-1.4c0.5-0.2,1-0.4,1.5-0.6c1.4-0.5,2.8-1,4.2-1.4c0.4-0.1,0.9-0.3,1.3-0.4c1.6-0.5,3.2-1,4.8-1.4
				c0.4-0.1,0.7-0.2,1-0.3c1.8-0.5,3.7-1,5.6-1.5c0.2,0,0.3-0.1,0.5-0.1c6.3-1.5,13-2.7,20.1-3.6c64.2-7.9,92.8,94.3,100.3,127.1
				c1.4,6.2,2.1,9.9,2.1,9.9V403z"/>
			<polygon class="st10" points="300.3,456.1 300.3,456.1 300.3,456.1 300.3,456.1 			"/>
			<polygon class="st10" points="300.3,403 300.3,456.1 300.3,456.1 300.3,403 			"/>
		</g>
		<linearGradient id="SVGID_8_" gradientUnits="userSpaceOnUse" x1="97.709" y1="363.6066" x2="170.1425" y2="194.9008">
			<stop  offset="0" style="stop-color:#FCBE40"/>
			<stop  offset="0.3051" style="stop-color:#7F532D"/>
			<stop  offset="0.6128" style="stop-color:#FCBE40"/>
			<stop  offset="0.794" style="stop-color:#FFF24E"/>
			<stop  offset="0.9775" style="stop-color:#FFFFFF"/>
		</linearGradient>
		<path class="st13" d="M96.3,376.6c0,0,0-69.3,74.8-181.1l-8.1,39.1c-24.2,41.2-37.3,74.9-44.4,99.1
			C118.7,333.7,104.2,351.8,96.3,376.6C96.3,376.6,96.3,376.6,96.3,376.6z"/>
		<linearGradient id="SVGID_9_" gradientUnits="userSpaceOnUse" x1="298.5654" y1="13.8362" x2="426.9285" y2="265.5196">
			<stop  offset="0" style="stop-color:#521500"/>
			<stop  offset="0.1538" style="stop-color:#71371A"/>
			<stop  offset="0.3359" style="stop-color:#7F532D"/>
			<stop  offset="0.6128" style="stop-color:#FCBE40"/>
			<stop  offset="0.8256" style="stop-color:#FFF24E"/>
			<stop  offset="1" style="stop-color:#FCFADD"/>
		</linearGradient>
		<path class="st14" d="M300.2,5.7v39.1c0,0,0,0,0,0c32.6,70.4,108.1,187.7,111.9,193.6l19.9,30.8l-8.2-38.4
			C423,229.6,312,57.5,300.2,5.7C300.2,5.7,300.2,5.7,300.2,5.7z"/>
		
			<linearGradient id="SVGID_10_" gradientUnits="userSpaceOnUse" x1="1789.0399" y1="208.7046" x2="1789.0399" y2="291.0062" gradientTransform="matrix(-1 0 0 1 2219.709 0)">
			<stop  offset="0" style="stop-color:#421411"/>
			<stop  offset="6.076911e-03" style="stop-color:#471613;stop-opacity:0.9931"/>
			<stop  offset="5.144896e-02" style="stop-color:#66231F;stop-opacity:0.9412"/>
			<stop  offset="0.1012" style="stop-color:#852D27;stop-opacity:0.8844"/>
			<stop  offset="0.1548" style="stop-color:#A2342D;stop-opacity:0.8231"/>
			<stop  offset="0.2136" style="stop-color:#BB3831;stop-opacity:0.7559"/>
			<stop  offset="0.2797" style="stop-color:#CF3B34;stop-opacity:0.6804"/>
			<stop  offset="0.3572" style="stop-color:#DE3D35;stop-opacity:0.5919"/>
			<stop  offset="0.4568" style="stop-color:#E93F36;stop-opacity:0.478"/>
			<stop  offset="0.6564" style="stop-color:#EE3F36;stop-opacity:0.25"/>
			<stop  offset="1" style="stop-color:#EE3F36;stop-opacity:0"/>
		</linearGradient>
		<polygon class="st15" points="432,269.3 423.9,230.9 429.4,195.5 437.5,234.5 		"/>
		<linearGradient id="SVGID_11_" gradientUnits="userSpaceOnUse" x1="464.0261" y1="336.6102" x2="309.5319" y2="392.0814">
			<stop  offset="0" style="stop-color:#EE3F36;stop-opacity:0"/>
			<stop  offset="0.3099" style="stop-color:#A4342E;stop-opacity:0.3099"/>
			<stop  offset="0.6352" style="stop-color:#6B2521;stop-opacity:0.6352"/>
			<stop  offset="0.8746" style="stop-color:#4D1916;stop-opacity:0.8746"/>
			<stop  offset="1" style="stop-color:#421411"/>
		</linearGradient>
		<path class="st16" d="M300.3,403c15.2-43.2,44.6-98.3,95.4-98.3c2.9,0,5.8,0.2,8.7,0.5c34.8,4.3,60,16.1,77.5,28.4
			c0,0,14.5,18.2,22.3,42.9c0,0,0-0.1-0.1-0.2c0,0,0-0.1-0.1-0.1c-0.1-0.1-0.1-0.2-0.2-0.3c-0.1-0.1-0.1-0.2-0.2-0.3
			c-0.1-0.1-0.1-0.2-0.2-0.4c-0.1-0.1-0.2-0.3-0.3-0.4c-0.1-0.1-0.2-0.3-0.3-0.5c-0.1-0.2-0.2-0.4-0.4-0.6c-0.1-0.2-0.2-0.3-0.3-0.5
			c-0.2-0.2-0.3-0.5-0.5-0.7c-0.1-0.2-0.3-0.4-0.4-0.6c-0.2-0.3-0.4-0.6-0.6-0.9c-0.2-0.2-0.3-0.4-0.5-0.6c-0.2-0.3-0.5-0.6-0.7-1
			c-0.2-0.2-0.3-0.5-0.5-0.7c-0.3-0.4-0.6-0.7-0.9-1.1c-0.2-0.2-0.4-0.5-0.6-0.7c-0.3-0.4-0.6-0.8-1-1.2c-0.2-0.3-0.4-0.5-0.7-0.8
			c-0.4-0.4-0.7-0.8-1.1-1.3c-0.2-0.3-0.5-0.5-0.7-0.8c-0.4-0.4-0.8-0.9-1.2-1.3c-0.3-0.3-0.5-0.6-0.8-0.9c-0.4-0.5-0.9-0.9-1.4-1.4
			c-0.3-0.3-0.6-0.6-0.9-0.9c-0.5-0.5-1-1-1.5-1.5c-0.3-0.3-0.6-0.6-0.9-0.9c-0.5-0.5-1.1-1-1.6-1.5c-0.3-0.3-0.7-0.6-1-0.9
			c-0.6-0.5-1.2-1-1.8-1.5c-0.4-0.3-0.7-0.6-1.1-0.9c-0.6-0.5-1.3-1-1.9-1.5c-0.4-0.3-0.8-0.6-1.2-0.9c-0.7-0.5-1.4-1-2.1-1.6
			c-0.4-0.3-0.8-0.6-1.2-0.9c-0.7-0.5-1.5-1-2.2-1.6c-0.4-0.3-0.9-0.6-1.3-0.9c-0.8-0.5-1.6-1-2.4-1.6c-0.5-0.3-0.9-0.6-1.4-0.9
			c-0.8-0.5-1.7-1-2.6-1.6c-0.5-0.3-0.9-0.6-1.4-0.9c-0.9-0.5-1.8-1-2.8-1.6c-0.5-0.3-1-0.5-1.5-0.8c-1-0.5-2-1-3-1.5
			c-0.5-0.3-1-0.5-1.5-0.8c-1-0.5-2.1-1-3.2-1.5c-0.5-0.2-1-0.5-1.5-0.7c-1.1-0.5-2.3-1-3.5-1.5c-0.5-0.2-1-0.4-1.5-0.6
			c-1.2-0.5-2.5-1-3.8-1.4c-0.5-0.2-1-0.4-1.5-0.6c-1.4-0.5-2.8-1-4.2-1.4c-0.4-0.1-0.9-0.3-1.3-0.4c-1.6-0.5-3.2-1-4.8-1.4
			c-0.4-0.1-0.7-0.2-1-0.3c-1.8-0.5-3.7-1-5.6-1.5c-0.2,0-0.3-0.1-0.5-0.1c-6.3-1.5-13-2.7-20.1-3.6
			c-64.2-7.9-92.8,94.3-100.3,127.1c-1.4,6.2-2.1,9.9-2.1,9.9V403z"/>
		<linearGradient id="SVGID_12_" gradientUnits="userSpaceOnUse" x1="494.4622" y1="356.683" x2="431.656" y2="187.0603">
			<stop  offset="0" style="stop-color:#FCBE40"/>
			<stop  offset="0.3051" style="stop-color:#7F532D"/>
			<stop  offset="0.6128" style="stop-color:#FCBE40"/>
			<stop  offset="0.794" style="stop-color:#FFF24E"/>
			<stop  offset="0.9775" style="stop-color:#FFFFFF"/>
		</linearGradient>
		<path class="st17" d="M504.2,376.6c0,0,0-69.3-74.8-181.1l8.1,39.1c24.2,41.2,37.3,74.9,44.4,99.1
			C481.9,333.7,496.3,351.8,504.2,376.6C504.2,376.6,504.2,376.6,504.2,376.6z"/>
		
			<radialGradient id="SVGID_13_" cx="298.8596" cy="423.9633" r="307.7421" gradientTransform="matrix(1 -1.197702e-04 7.116830e-05 0.5942 -3.017061e-02 172.077)" gradientUnits="userSpaceOnUse">
			<stop  offset="0" style="stop-color:#EE3F36;stop-opacity:0"/>
			<stop  offset="0.3436" style="stop-color:#EE3F36;stop-opacity:0.25"/>
			<stop  offset="0.5432" style="stop-color:#E93F36;stop-opacity:0.478"/>
			<stop  offset="0.6428" style="stop-color:#DE3D35;stop-opacity:0.5919"/>
			<stop  offset="0.7203" style="stop-color:#CF3B34;stop-opacity:0.6804"/>
			<stop  offset="0.7864" style="stop-color:#BB3831;stop-opacity:0.7559"/>
			<stop  offset="0.8452" style="stop-color:#A2342D;stop-opacity:0.8231"/>
			<stop  offset="0.8988" style="stop-color:#852D27;stop-opacity:0.8844"/>
			<stop  offset="0.9485" style="stop-color:#66231F;stop-opacity:0.9412"/>
			<stop  offset="0.9939" style="stop-color:#471613;stop-opacity:0.9931"/>
			<stop  offset="1" style="stop-color:#421411"/>
		</radialGradient>
		<path class="st18" d="M471.9,320.4c-19.5-10.9-41.9-18-66.9-21.1c-3.2-0.4-6.3-0.6-9.4-0.6c-48.2,0-77.9,45.1-95.3,88
			c-17.4-43-47.2-88-95.4-88c-3.1,0-6.3,0.2-9.4,0.6c-25,3.1-47.4,10.2-66.9,21.1c5.8-16.9,13.3-34.4,22.3-52.3
			c3.5-1.6,7.2-3.1,11.1-4.6l3.2,20.8l18.1-28c33-9.6,73.2-15.3,116.5-15.3c43.8,0,84.5,5.8,117.6,15.6l17.9,27.7l3.2-20.5
			c3.9,1.5,7.7,3.1,11.4,4.8C458.8,286.4,466.1,303.7,471.9,320.4z"/>
		<g>
			<linearGradient id="SVGID_14_" gradientUnits="userSpaceOnUse" x1="358.9606" y1="173.6042" x2="274.3784" y2="293.0278">
				<stop  offset="0" style="stop-color:#002252"/>
				<stop  offset="0.5795" style="stop-color:#0079B5"/>
				<stop  offset="0.7291" style="stop-color:#007AB5"/>
				<stop  offset="0.7942" style="stop-color:#007DB8"/>
				<stop  offset="0.8431" style="stop-color:#0083BD"/>
				<stop  offset="0.8837" style="stop-color:#008BC3"/>
				<stop  offset="0.9193" style="stop-color:#0098CC"/>
				<stop  offset="0.9513" style="stop-color:#3EA8D8"/>
				<stop  offset="0.98" style="stop-color:#6BBEE7"/>
				<stop  offset="1" style="stop-color:#8ED8F8"/>
			</linearGradient>
			<path class="st19" d="M383,266c-35.8,4.1-62.8,25.2-82.8,51.9c-20-26.6-46.9-47.8-82.7-51.9l3.9-6.1c5.4-8.3,13.2-20.6,22.4-35.3
				c16.4-26.3,37.3-60.5,56.4-94.5c16.2,28.8,33.6,57.7,48.5,81.8c12.6,20.3,23.4,37.3,30.3,47.9L383,266z"/>
			<linearGradient id="SVGID_15_" gradientUnits="userSpaceOnUse" x1="300.2888" y1="320.2322" x2="300.2888" y2="127.1929">
				<stop  offset="0" style="stop-color:#FAF5DA"/>
				<stop  offset="0.2667" style="stop-color:#FEEF83"/>
				<stop  offset="0.2745" style="stop-color:#FBEB81"/>
				<stop  offset="0.2774" style="stop-color:#F1DF7B"/>
				<stop  offset="0.2794" style="stop-color:#E5CF74"/>
				<stop  offset="0.281" style="stop-color:#D4BA69"/>
				<stop  offset="0.2824" style="stop-color:#C0A15C"/>
				<stop  offset="0.2837" style="stop-color:#A9844C"/>
				<stop  offset="0.2848" style="stop-color:#8F653B"/>
				<stop  offset="0.2858" style="stop-color:#754729"/>
				<stop  offset="0.2868" style="stop-color:#5C2918"/>
				<stop  offset="0.2872" style="stop-color:#50180D"/>
			</linearGradient>
			<path class="st20" d="M300.3,130.1c16.2,28.8,33.6,57.7,48.5,81.8c12.6,20.3,23.4,37.3,30.3,47.9l3.9,6.1
				c-35.8,4.1-62.8,25.2-82.8,51.9c-20-26.6-46.9-47.8-82.7-51.9l3.9-6.1c5.4-8.3,13.2-20.6,22.4-35.3
				C260.3,198.3,281.2,164,300.3,130.1 M300.3,127.2l-1.2,2.2c-15.6,27.8-34.5,59.5-56.3,94.4c-10.5,16.8-18.5,29.3-22.4,35.3
				l-4,6.1l-1.2,1.9l2.3,0.3c31.3,3.5,58.8,20.8,81.7,51.3l1.1,1.5l1.1-1.5c22.9-30.5,50.4-47.8,81.8-51.3l2.3-0.3l-1.2-1.9
				l-3.9-6.1c-5.3-8.1-16.2-25.2-30.3-47.9c-17.8-28.8-34.6-57-48.5-81.8L300.3,127.2L300.3,127.2z"/>
		</g>
		<linearGradient id="SVGID_16_" gradientUnits="userSpaceOnUse" x1="300.2884" y1="140.9398" x2="300.2884" y2="309.5228">
			<stop  offset="0.1385" style="stop-color:#00446B"/>
			<stop  offset="0.45" style="stop-color:#00B8E9"/>
		</linearGradient>
		<path class="st21" d="M300.3,309.2c-21.1-26.1-45.9-41.9-73.8-47.2c5.4-8.3,13-20.3,21.9-34.5c19.7-31.6,37.1-60.6,51.8-86.5
			c13,22.8,28.1,48.1,44,73.8c14.2,22.9,25.3,40.1,29.9,47.2C346.2,267.3,321.4,283.1,300.3,309.2z"/>
		
			<radialGradient id="SVGID_17_" cx="302.2792" cy="296.419" r="113.9928" gradientTransform="matrix(0.9999 -1.299791e-02 7.519428e-03 0.5785 -2.2034 128.881)" gradientUnits="userSpaceOnUse">
			<stop  offset="0" style="stop-color:#00A5E5;stop-opacity:0"/>
			<stop  offset="1" style="stop-color:#000740"/>
		</radialGradient>
		<path class="st22" d="M374.1,261.9c-27.9,5.3-52.7,21.2-73.8,47.2c-21.1-26-45.9-41.9-73.8-47.2c2.6-4.1,5.8-9.1,9.4-14.8
			c20.2-2.6,41.8-4,64.3-4c22.5,0,44.2,1.4,64.4,4C368.8,253.8,372.1,258.8,374.1,261.9z"/>
		
			<radialGradient id="SVGID_18_" cx="302.2792" cy="296.419" r="113.9928" gradientTransform="matrix(0.9999 -1.299791e-02 7.519428e-03 0.5785 -2.2034 128.881)" gradientUnits="userSpaceOnUse">
			<stop  offset="0" style="stop-color:#00A5E5;stop-opacity:0"/>
			<stop  offset="1" style="stop-color:#000740"/>
		</radialGradient>
		<path class="st23" d="M374.1,261.9c-27.9,5.3-52.7,21.2-73.8,47.2c-21.1-26-45.9-41.9-73.8-47.2c2.6-4.1,5.8-9.1,9.4-14.8
			c20.2-2.6,41.8-4,64.3-4c22.5,0,44.2,1.4,64.4,4C368.8,253.8,372.1,258.8,374.1,261.9z"/>
		<g class="st24">
			<path d="M322.9,187.9L322.9,187.9c-14.2-7.7-31.3-7.9-45.6-0.5l0,0c-4.1,2.1-7.6,5.3-10,9.3c-6.1,10-18.4,29.8-24.5,39.7
				c-6.1,9.8-16.3,25.7-16.3,25.7l-9,4l4-6.1c5.4-8.3,13.2-20.6,22.4-35.3c16.4-26.3,37.3-60.5,56.4-94.5
				c16.2,28.7,33.6,57.7,48.5,81.8c12.6,20.3,23.4,37.3,30.3,47.9l3.9,6.1l-8.9-4l-41.8-65.4C329.9,192.9,326.7,189.9,322.9,187.9z"
				/>
		</g>
		<linearGradient id="SVGID_19_" gradientUnits="userSpaceOnUse" x1="299.3866" y1="310.6971" x2="345.4598" y2="277.5749">
			<stop  offset="0" style="stop-color:#000000"/>
			<stop  offset="1" style="stop-color:#000000;stop-opacity:0"/>
		</linearGradient>
		<path class="st25" d="M302.4,306.6c-0.4,0.6-0.9,1.1-1.4,1.7c-0.2,0.3-0.5,0.6-0.7,0.9v8.7c0.2-0.3,0.5-0.6,0.7-1
			c0.4-0.6,0.9-1.2,1.4-1.8c12.2-15.6,26.8-29.1,44.3-38.1v-6C330.6,278.8,315.8,290.7,302.4,306.6z"/>
		
			<radialGradient id="SVGID_20_" cx="303.7162" cy="246.327" r="143.0974" gradientTransform="matrix(1 0 0 0.453 0 134.7461)" gradientUnits="userSpaceOnUse">
			<stop  offset="0" style="stop-color:#C6E0F1"/>
			<stop  offset="1" style="stop-color:#00264E;stop-opacity:0"/>
		</radialGradient>
		<path class="st26" d="M364.6,247.2c-20.3-2.6-41.9-4-64.4-4c-22.4,0-44,1.4-64.2,4c3.7-5.9,7.9-12.5,12.5-19.7
			c19.7-31.6,37.1-60.6,51.8-86.5c13,22.8,28.1,48.1,44,73.8C352.2,227.6,359.2,238.7,364.6,247.2z"/>
	</g>
	<g>
		<path class="st1" d="M59.5,489.4c14.4,1.1,20.9,4.2,19.4,9.5c-2.4,46.8-1.7,74.7-0.8,86.2c-0.9,0.5-1.9,0.9-2.8,1.4
			c-6.1,0.3-12.2,0.5-18.3,0.8c-0.7-0.4-1.4-0.8-2.1-1.2c2.5-3,4-5.7,4.7-8.1c0.1-0.4,0.3-0.9,0.4-1.3c3.2-16.9,3.3-25.4,0.2-25.4
			c-0.4,0-0.8,0-1.2,0c-33.4,24.6-53.5,38.8-56.9,38.9c-2,0.1-2.6-1.7-1.8-5.5c12.5-37.8,32.8-65.1,58.9-79.9
			c0.3-0.9,0.6-1.8,0.8-2.8c0.4-1.4-1.1-5.2-4.3-11.5C57.6,489.7,58.8,489.3,59.5,489.4z M37.9,538.9c-2.1,6.8-4.3,13.7-6.4,20.5
			c0.9,0,1.8,0,2.7-0.1c14.7-9.6,23.2-16.1,26-20.3c2.4-16.1,2.8-24.3,1.1-24.4c-0.9,0-1.8-0.1-2.6-0.1
			C47.9,521.1,40.9,529.4,37.9,538.9z"/>
		<path class="st1" d="M119.9,493.5c1.5,0.1,3.1,0.2,4.6,0.2c2.3,0.1,5.1,1.6,8.3,4.5c4.2-1.2,8.3-2.3,12.4-3.4
			c18.1,5.6,26.5,13.1,24.6,23.2c-0.4,1.8-10.6,8.8-32.2,21.9c-0.3,1.3-0.6,2.6-0.9,4c12.6,32.7,27,52.8,40.4,62.3
			c-0.3,1.7-1.3,2.6-3.1,2.6c-0.9,0-1.8,0.1-2.7,0.1c-15.7,0.6-29.6-11.7-39.2-38.6c-7.5-14.7-12.2-22.4-14.8-22.4
			c-0.6,0.9-1.2,1.8-1.9,2.7c-2.1,9-4.3,17.9-6.4,26.9c-0.1,2.2-0.2,4.4-0.3,6.7c-1,0.5-1.9,1-2.9,1.4c-4.3,0.2-8.6,0.3-13,0.5
			c-1.7,0.1-2.3-0.8-1.9-2.6c3.4-3.3,8.1-17,14.2-41c3.9-15.4,7.8-30.9,11.7-46.3C117.6,494.3,118.6,493.5,119.9,493.5z
			 M127.7,504.8c-2.9,12.1-5.8,24.2-8.7,36.3c0.4,0,0.8,0,1.2,0c20.1-9.2,30.4-16.9,31.8-23.5c-4.4-8-8.6-12.2-12.7-12.4
			C135.5,505.1,131.6,505,127.7,504.8z"/>
		<path class="st1" d="M227.9,497.4c9,1.8,14.5,3.5,16.3,5.2c-2,6-3.2,9.6-3.3,10.8c-0.4,0-0.7,0-1.1,0c-3.8-4.9-8.1-7.4-12.9-7.5
			c-0.8,0-1.5,0-2.3,0c-12-0.2-20.7,8.1-26.4,25.3c-0.6,4.1-1.2,8.2-1.8,12.2c-2.1,13.7,5.9,22.6,24.5,26.6c2.5,0,5-0.1,7.4-0.1
			c5.3-1.9,11.7-8.7,18.9-20.5c0.8,0,1.6,0,2.4,0c0,0.4-0.1,0.8-0.1,1.2c-6.6,20-11.3,30.1-13.6,30.1c-1.5,0.8-3.6,1.2-6.4,1.3
			c-28.6,0.4-46.4-10-52.1-32.4c0-4.5,0.2-8.2,0.7-11.2C182.1,516,199,502.3,227.9,497.4z"/>
		<path class="st1" d="M292.4,498.3c14.5,0.1,21.8,2.3,21.8,6.9c11.5,39.8,20.9,64.9,25.4,75.2c-0.8,0.4-1.6,0.8-2.4,1.1
			c-6.1,0-12.2-0.1-18.3-0.1c-0.8-0.4-1.7-0.8-2.5-1.2c1.6-2.5,2.4-4.8,2.3-6.9c0-0.4,0-0.8,0-1.2c-1.9-14.6-4.3-22-7.5-22
			c-0.4,0-0.8,0-1.2,0c-26.2,20.8-42.8,31.3-46.2,31.4c-2,0-3.2-1.5-3.4-4.6c1.9-30.5,14.6-52.5,36.1-66c0-0.8,0-1.5,0-2.3
			c0-1.2-2.5-4.2-7.5-9.3C290.6,498.6,291.7,498.3,292.4,498.3z M285.2,539.8c-0.2,5.7-0.3,11.4-0.5,17c0.9,0,1.8,0,2.7,0
			c12-7.8,18.5-13.5,20.1-17c-2.4-13.7-4.4-20.6-6.1-20.6c-0.9,0-1.8,0-2.6,0C290.1,525,285.5,531.8,285.2,539.8z"/>
		<path class="st1" d="M391.6,489.8c4.1-0.1,8.1-0.3,12.2-0.4c0.4,5.4,0.8,10.8,1.1,16.3c3.6,25.6,7.3,51.3,10.9,76.9
			c-1.4,0-2.8-0.1-4.2-0.1c-0.2-2.7-15.7-17.5-42.5-43.1c-0.9,0-1.7,0-2.6,0c-1.8,0.3-2.6,1.2-2.5,2.6c0.7,8.8,1.4,17.6,2.1,26.4
			c0.2,2.2,1.4,6.2,3.8,11.9c-0.9,0.4-1.8,0.9-2.7,1.3c-2.8,0-5.5-0.1-8.3-0.1c-1.8,0-2.8-0.9-2.9-2.7c1.6-2.9,2.4-5.5,2.2-7.9
			c-1.7-23.7-3.3-47.5-5-71.2c0.1-1.8,0.9-2.6,2.3-2.7c25.8,26.9,42.2,40.8,44.8,40.8c0.6-1.8,1.3-3.6,1.9-5.4
			c-4.5-26.9-7.9-40.3-10.3-40.2C391.8,491.6,391.7,490.7,391.6,489.8z"/>
		<path class="st1" d="M429.7,565c4-5,5.4-10.2,4.5-15.6c-2.2-12.9-4.4-25.8-6.6-38.6c-0.9-5-3.2-9.4-7-13.1
			c-0.1-0.4-0.1-0.8-0.2-1.2c7.5-0.3,14.9-0.5,22.4-0.8c0.1,0.4,0.2,0.8,0.2,1.2c-1.1,2.5-2.2,5-3.3,7.5c5,26.4,9.9,52.9,14.9,79.3
			c-0.7,0-1.4,0-2.1-0.1C437.2,572,429.9,566,429.7,565z"/>
		<path class="st1" d="M486.6,493.5c9.1-0.5,17,3.4,24.1,11.9c0.1,0.4,0.2,0.9,0.4,1.3c0.4,1.4-0.6,3.2-3,5.3c-0.4,0-0.7,0-1.1,0
			c-1.6-6.2-5.4-10.9-11.4-13.8c-1.8,0.1-3.7,0.2-5.5,0.3c-6.7,2.7-9.7,5.8-8.9,9.4c0.4,1.7,0.8,3.4,1.2,5
			c0.7,2.5,14.6,19.4,45.9,53.9c0.2,0.9,0.5,1.7,0.7,2.6c-3.8,11.2-12.9,16.3-27.2,15.7c-22-4.5-33.8-10.8-35.5-19.6
			c0.9,0,3.6-2.4,7.9-7.3c0.8,0,1.6,0,2.4,0c2.9,13.3,10.8,20.2,23.7,20.6c6.7,0.2,9.7-3.9,8.9-12.4c-0.7-3.2-17.6-22.7-46.3-55.4
			c-0.2-0.8-0.4-1.7-0.5-2.5C468.3,499.1,476.2,494,486.6,493.5z"/>
		<path class="st1" d="M531.5,490.8c12.5-0.8,24.9-1.7,37.3-2.7c4.9-0.4,10.7,7,17.6,22.5c0.5,1.4,0.9,2.9,1.4,4.3
			c-0.8,0-1.5,0.1-2.3,0.1c-3-9.2-11-16.1-23.7-20.5c-0.7,0-1.5,0.1-2.2,0.1c0.4,2.4,0.7,4.8,1,7.1c5.1,16.4,10.3,32.8,15.4,49.3
			c5.3,17,10.5,29.7,15.6,38.3c-6.6-0.4-13.2-0.7-19.8-1c-1.6-0.1-2.7-1-3.3-2.9c0.4-1.4,0.8-2.7,1.2-4.1
			c-8.6-28.6-17.1-57.2-25.7-85.7c-0.7,0-1.5,0.1-2.2,0.1c-6.8,0.4-10.3,7.6-10.9,21.2c-0.8,0-1.5,0-2.3,0.1
			c-0.1-0.4-0.3-0.9-0.4-1.3C525.1,499.5,526.1,491.1,531.5,490.8z"/>
	</g>
</g>
</svg>
