<?xml version="1.0" encoding="utf-8"?>
<!-- Generator: Adobe Illustrator 22.1.0, SVG Export Plug-In . SVG Version: 6.00 Build 0)  -->
<svg version="1.1" id="Layer_1" xmlns="http://www.w3.org/2000/svg" xmlns:xlink="http://www.w3.org/1999/xlink" x="0px" y="0px"
	 viewBox="0 0 214.4 84.6" style="enable-background:new 0 0 214.4 84.6;" xml:space="preserve">
<style type="text/css">
	.st0{fill:#0C0C0D;}
	.st1{fill:url(#SVGID_1_);}
	.st2{fill:url(#SVGID_2_);}
	.st3{fill:url(#SVGID_3_);}
	.st4{fill:url(#SVGID_4_);}
	.st5{fill:url(#SVGID_5_);}
	.st6{fill:url(#SVGID_6_);}
	.st7{fill:url(#SVGID_7_);}
	.st8{fill:url(#SVGID_8_);}
	.st9{fill:#509696;}
	.st10{fill:#FFFFFF;}
	.st11{fill:url(#SVGID_9_);}
	.st12{fill:url(#SVGID_10_);}
	.st13{fill:url(#SVGID_11_);}
	.st14{fill:url(#SVGID_12_);}
	.st15{fill:url(#SVGID_13_);}
	.st16{fill:url(#SVGID_14_);}
	.st17{fill:url(#SVGID_15_);}
</style>
<path class="st0" d="M207.6,6l-39.5-0.9l-6.9-0.2l-0.2,6.9l-0.4,14L145.3,19l-10.4,5.6l-0.1-4.2l-19.8,0.8l0,3.3l-10.8-3.8l-18.3,0
	v0l-8.5-1.2l0-0.6c0,0-4.3,0-4.3,0l0,0.6L64.9,21l0-1.4l-36.4,3.2l0,0.5l-17.1-6.6L0,32.3l9,14.4l-6.1-5.9l0.7,25.4l25.6,3.5
	l7.6-15.3l0.1,12.9l21.2-0.3l-0.3-6.6L75.2,69l10.6-5.6l0,3.3l19.3,0.4l10.1-4.3l0,4.6l20.8-0.3l-0.1-3.3l10.5,5.2l13.2-6.9
	L159,74.7l-0.2,6.8l6.7,0.4l40.5,2.3l7.4,0.4l0-7.4l-0.1-17.6l0-6.6l-6.6-0.3l-6.4-0.3l12.6-17.7l1.2-1.8l0-2.2l0.2-17.9l0.1-6.8
	L207.6,6z"/>
<linearGradient id="SVGID_1_" gradientUnits="userSpaceOnUse" x1="108.0572" y1="72.6968" x2="108.0572" y2="-12.8628">
	<stop  offset="0" style="stop-color:#AFDFDF"/>
	<stop  offset="0.4923" style="stop-color:#7BCECF"/>
	<stop  offset="1" style="stop-color:#00819C"/>
</linearGradient>
<path class="st1" d="M77.3,14.2c0,0-4.3,0-4.3,0l-8.1,1.9l0-1.4l-36.4,3.2l0,0.5l-15.4-4.1L1.7,30L9,41.9l-6.1-1l0.7,20.5l25.6,3.5
	l7.6-15.3l0.1,12.9l21.2-0.3l-0.3-6.6l17.4,8.5l10.6-5.6l0,3.3l19.3,0.4l10.1-4.3l0,4.6l20.8-0.3l-0.1-3.3l10.5,5.2l13.2-6.9
	L159,69.8l-0.2,6.8l6.7,0.4l40.5,2.3l7.4,0.4l0-7.4l-0.1-17.6l0-6.6l-6.6-0.3l-6.4-0.3l12.6-17.7l1.2-1.8l0-2.2l0.2-17.9l0.1-6.8
	l-6.8-0.2l-39.5-0.9L161.3,0l-0.2,6.9l-0.4,14l-15.3-6.8l-10.4,5.6l-0.1-4.2l-19.8,0.8l0,3.3l-10.8-3.8l-18.3,0v0L77.3,14.2z"/>
<g>
	<g>
		<g>
			<linearGradient id="SVGID_2_" gradientUnits="userSpaceOnUse" x1="19.862" y1="21.2053" x2="19.862" y2="61.0344">
				<stop  offset="0" style="stop-color:#FFFFFF"/>
				<stop  offset="1" style="stop-color:#B9E2E3"/>
			</linearGradient>
			<path class="st2" d="M31.8,24.6l-1.3,8.5L20,30.6l11.8,17.5l-5.5,11.1L8.7,56.8L8.3,47l11.1,1.9L7.9,30.2l7.3-10L31.8,24.6z"/>
			<linearGradient id="SVGID_3_" gradientUnits="userSpaceOnUse" x1="46.8223" y1="21.2053" x2="46.8223" y2="61.0344">
				<stop  offset="0" style="stop-color:#FFFFFF"/>
				<stop  offset="1" style="stop-color:#B9E2E3"/>
			</linearGradient>
			<path class="st3" d="M34.1,22.6l25.5-2.2l-0.3,11.4h-7.8l1.2,25.4l-10.6,0.1l-0.1-25.1l-7.3-0.8L34.1,22.6z"/>
			<linearGradient id="SVGID_4_" gradientUnits="userSpaceOnUse" x1="75.0401" y1="21.2053" x2="75.0401" y2="61.0344">
				<stop  offset="0" style="stop-color:#FFFFFF"/>
				<stop  offset="1" style="stop-color:#B9E2E3"/>
			</linearGradient>
			<path class="st4" d="M72.1,20.2l0,25.9l2.6,1.9l3.4-1.3l0.1-26.5l10.2,1.4l-0.7,30l-12.6,6.6l-13.4-6.5l0.4-30L72.1,20.2z"/>
			<linearGradient id="SVGID_5_" gradientUnits="userSpaceOnUse" x1="104.3445" y1="21.2053" x2="104.3445" y2="61.0344">
				<stop  offset="0" style="stop-color:#FFFFFF"/>
				<stop  offset="1" style="stop-color:#B9E2E3"/>
			</linearGradient>
			<path class="st5" d="M90.9,56.7L91,21.2l12.3,0l14.5,5.1l-1.2,25.3L104,57L90.9,56.7z M100.3,30.2l0.7,18.1l6-1.7l0.1-14.4
				L100.3,30.2z"/>
			<linearGradient id="SVGID_6_" gradientUnits="userSpaceOnUse" x1="125.3766" y1="21.2053" x2="125.3766" y2="61.0344">
				<stop  offset="0" style="stop-color:#FFFFFF"/>
				<stop  offset="1" style="stop-color:#B9E2E3"/>
			</linearGradient>
			<path class="st6" d="M129.7,21l0.9,36.1l-10.4,0.1l-0.1-35.8L129.7,21z"/>
			<linearGradient id="SVGID_7_" gradientUnits="userSpaceOnUse" x1="146.5096" y1="21.2053" x2="146.5096" y2="61.0344">
				<stop  offset="0" style="stop-color:#FFFFFF"/>
				<stop  offset="1" style="stop-color:#B9E2E3"/>
			</linearGradient>
			<path class="st7" d="M133.1,51.7L133,26.6l12.5-6.8l14.5,6.4l-1.2,25.3l-12.6,6.6L133.1,51.7z M142.6,31.5l0.7,14.6l2.6,1.9
				l3.4-1.3l0.1-13.9l-3.5-2.5L142.6,31.5z"/>
		</g>
	</g>
</g>
<linearGradient id="SVGID_8_" gradientUnits="userSpaceOnUse" x1="186.6807" y1="69.2401" x2="186.6807" y2="4.7033">
	<stop  offset="0" style="stop-color:#000231"/>
	<stop  offset="1" style="stop-color:#396780"/>
</linearGradient>
<path class="st8" d="M187.3,53.9l19,0.9l0.1,17.6L165.9,70l0.6-17l20-27.7l-19.1-0.5L168,7.1L207.4,8l-0.2,17.9L187.3,53.9z"/>
<g>
	<g>
		<g>
			<path class="st9" d="M32.1,23l-1.7,11.1L20,31.6l8.2,9.7l4.3,6.4l-6.2,12.5L8.7,57.8L8.3,45.4l11.1,4.5L7.1,29.7l7.3-10l14.2,2.3
				L32.1,23z"/>
			<path class="st9" d="M33.7,21l25.9-2.3l-0.3,14h-7.8l1.2,25.4l-10.6,0.1l-0.1-25.1l-7.3-0.8L33.7,21z"/>
			<path class="st9" d="M72.1,21.2l0,25.9l2.6,1.9l3.4-1.3l0.1-26.5l10.2,1.4l-0.7,30l-12.6,6.6l-13.4-6.5l0.4-30L72.1,21.2z"/>
			<path class="st9" d="M90.9,57.8L91,22.2l12.3,0l14.5,5.1l-1.2,25.3L104,58L90.9,57.8z M100.3,31.2l0.7,18.1l6-1.7l0.1-14.4
				L100.3,31.2z"/>
			<path class="st9" d="M129.7,22l0.9,36.1l-10.4,0.1l-0.1-35.8L129.7,22z"/>
			<path class="st9" d="M133.1,52.8L133,27.7l12.5-6.8l14.5,6.4l-1.2,25.3l-12.6,6.6L133.1,52.8z M142.6,32.5l0.7,14.6l2.6,1.9
				l3.4-1.3l0.1-13.9l-3.5-2.5L142.6,32.5z"/>
		</g>
	</g>
</g>
<path class="st9" d="M187.3,54.9l19,0.9l0.1,17.6L165.9,71l0.6-17l20-27.7l-19.1-0.5L168,8.1L207.4,9l-0.2,17.9L187.3,54.9z"/>
<g>
	<g>
		<g>
			<path class="st10" d="M31.8,22.9l-1.3,8.5L20,29l11.8,17.5l-5.5,11.1L8.7,55.1l-0.3-9.8l11.1,1.9L7.9,28.6l7.3-10L31.8,22.9z"/>
			<linearGradient id="SVGID_9_" gradientUnits="userSpaceOnUse" x1="19.9254" y1="21.4355" x2="19.9254" y2="57.3272">
				<stop  offset="0" style="stop-color:#FFFFFF"/>
				<stop  offset="1" style="stop-color:#B9E2E3"/>
			</linearGradient>
			<polygon class="st11" points="10.4,53.6 10.2,47.4 22.9,49.6 10,28.7 16,20.6 29.8,24.2 29,29.3 16.1,26.3 29.8,46.6 25.3,55.7 
							"/>
			<path class="st10" d="M34.1,21l25.5-2.2l-0.3,11.4h-7.8l1.2,25.4l-10.6,0.1l-0.1-25.1l-7.3-0.8L34.1,21z"/>
			<linearGradient id="SVGID_10_" gradientUnits="userSpaceOnUse" x1="46.8538" y1="21.3707" x2="46.8538" y2="57.2615">
				<stop  offset="0" style="stop-color:#FFFFFF"/>
				<stop  offset="1" style="stop-color:#B9E2E3"/>
			</linearGradient>
			<polygon class="st12" points="43.6,28.9 36.3,28.1 35.9,22.6 57.8,20.6 57.6,28.4 49.7,28.4 50.9,53.7 43.8,53.8 			"/>
			<path class="st10" d="M72.1,18.6l0,25.9l2.6,1.9l3.4-1.3l0.1-26.5l10.2,1.4l-0.7,30l-12.6,6.6l-13.4-6.5l0.4-30L72.1,18.6z"/>
			<linearGradient id="SVGID_11_" gradientUnits="userSpaceOnUse" x1="75.0279" y1="21.4376" x2="75.0279" y2="57.1649">
				<stop  offset="0" style="stop-color:#FFFFFF"/>
				<stop  offset="1" style="stop-color:#B9E2E3"/>
			</linearGradient>
			<polygon class="st13" points="63.5,49 63.8,21.6 70.4,20.6 70.3,45.3 74.4,48.3 79.8,46.2 79.9,20.5 86.6,21.4 85.9,48.9 
				75,54.7 			"/>
			<path class="st10" d="M90.9,55.1L91,19.5l12.3,0l14.5,5.1L116.6,50L104,55.4L90.9,55.1z M100.3,28.6l0.7,18.1l6-1.7l0.1-14.4
				L100.3,28.6z"/>
			<linearGradient id="SVGID_12_" gradientUnits="userSpaceOnUse" x1="104.3177" y1="21.2802" x2="104.3177" y2="57.2669">
				<stop  offset="0" style="stop-color:#FFFFFF"/>
				<stop  offset="1" style="stop-color:#B9E2E3"/>
			</linearGradient>
			<path class="st14" d="M92.6,53.4l0.1-32.2l10.2,0l13,4.6l-1.1,23l-11.2,4.8L92.6,53.4z M99.4,48.9l9.4-2.6l0.1-17.1l-10.4-3
				L99.4,48.9z"/>
			<path class="st10" d="M129.7,19.4l0.9,36.1l-10.4,0.1l-0.1-35.8L129.7,19.4z"/>
			<linearGradient id="SVGID_13_" gradientUnits="userSpaceOnUse" x1="125.3588" y1="21.3395" x2="125.3588" y2="57.2648">
				<stop  offset="0" style="stop-color:#FFFFFF"/>
				<stop  offset="1" style="stop-color:#B9E2E3"/>
			</linearGradient>
			<polygon class="st15" points="121.9,21.4 128,21.2 128.9,53.7 122,53.8 			"/>
			<path class="st10" d="M133.1,50.1L133,25l12.5-6.8l14.5,6.4L158.8,50l-12.6,6.6L133.1,50.1z M142.6,29.8l0.7,14.6l2.6,1.9
				l3.4-1.3l0.1-13.9l-3.5-2.5L142.6,29.8z"/>
			<linearGradient id="SVGID_14_" gradientUnits="userSpaceOnUse" x1="146.486" y1="21.3516" x2="146.486" y2="57.1677">
				<stop  offset="0" style="stop-color:#FFFFFF"/>
				<stop  offset="1" style="stop-color:#B9E2E3"/>
			</linearGradient>
			<path class="st16" d="M134.9,49l-0.1-23l10.8-5.9l12.7,5.6l-1.1,23.2l-10.9,5.8L134.9,49z M140.8,28.6l0.8,16.7l4.1,2.9l5.4-2.1
				l0.1-16l-5-3.6L140.8,28.6z"/>
		</g>
	</g>
</g>
<linearGradient id="SVGID_15_" gradientUnits="userSpaceOnUse" x1="186.6807" y1="48.7875" x2="186.6807" y2="-25.7139">
	<stop  offset="0" style="stop-color:#000231"/>
	<stop  offset="1" style="stop-color:#396780"/>
</linearGradient>
<path class="st17" d="M187.3,52.3l19,0.9l0.1,17.6l-40.5-2.3l0.6-17l20-27.7l-19.1-0.5L168,5.4l39.5,0.9l-0.2,17.9L187.3,52.3z"/>
</svg>
